<svg xmlns="http://www.w3.org/2000/svg" version="1.1" xmlns:xlink="http://www.w3.org/1999/xlink" xmlns:svgjs="http://svgjs.dev/svgjs" width="1500" height="500" viewBox="0 0 1500 500"><g transform="matrix(1,0,0,1,-0.9090909090909918,-0.6542215402974989)"><svg viewBox="0 0 396 132" data-background-color="#ca3433" preserveAspectRatio="xMidYMid meet" height="500" width="1500" xmlns="http://www.w3.org/2000/svg" xmlns:xlink="http://www.w3.org/1999/xlink"><g id="tight-bounds" transform="matrix(1,0,0,1,0.2400000000000091,0.17271448663854017)"><svg viewBox="0 0 395.52 131.65457102672292" height="131.65457102672292" width="395.52"><g><svg viewBox="0 0 395.52 131.65457102672292" height="131.65457102672292" width="395.52"><g><svg viewBox="0 0 395.52 131.65457102672292" height="131.65457102672292" width="395.52"><g id="textblocktransform"><svg viewBox="0 0 395.52 131.65457102672292" height="131.65457102672292" width="395.52" id="textblock"><g><svg viewBox="0 0 395.52 131.65457102672292" height="131.65457102672292" width="395.52"><g transform="matrix(1,0,0,1,0,0)"><svg width="395.52" viewBox="2.5 -35.5 106.63 35.5" height="131.65457102672292" data-palette-color="#ffffff"><path d="M5.1 0L2.5 0 2.5-35.5 6.1-35.5 9.75-13.8 10.15-13.8 13.55-35.5 16.45-35.5 17.6 0 14.3 0 14.3-26.75 13.95-26.75 10.5-7.85 8.85-7.5 5.3-29.45 5.1-29.45 5.1 0ZM32.45 0L25.8 0Q23.75 0 22.95-0.65 22.15-1.3 22.15-2.8L22.15-2.8 22.15-34.3Q23.25-34.9 25.02-35.2 26.8-35.5 29.75-35.5L29.75-35.5Q31.1-35.5 31.95-34.83 32.8-34.15 32.8-33.1L32.8-33.1 32.45 0ZM25.35-3.15L28.9-2.85 29.35-3.3 29.65-31.85Q29.65-32.1 29.2-32.15L29.2-32.15 26.1-32.3 25.65-32 25.35-3.15ZM44.34 0L39.09 0 36.15-35.5 39.3-35.5 42.3-1.25 42.55-1.25 45.9-35 49.2-35 44.34 0ZM62.79-4.15L62.79 0 52.09 0 52.09-35.5 62.79-35.5 62.79-32.4 56.54-32.7 56.54-21.35 62.79-20.2 62.79-17.8 55.69-18.1 55.69-3.75 62.79-4.15ZM79.19 0L67.99 0 67.09-1.65 74.29-33.1 67.89-32.3 67.89-35.5 78.19-35.5 72.49-2.8 79.19-2.35 79.19 0ZM93.19 0L86.54 0Q84.49 0 83.69-0.65 82.89-1.3 82.89-2.8L82.89-2.8 82.89-34.3Q83.99-34.9 85.76-35.2 87.54-35.5 90.49-35.5L90.49-35.5Q91.84-35.5 92.69-34.83 93.54-34.15 93.54-33.1L93.54-33.1 93.19 0ZM86.09-3.15L89.64-2.85 90.09-3.3 90.39-31.85Q90.39-32.1 89.94-32.15L89.94-32.15 86.84-32.3 86.39-32 86.09-3.15ZM108.78 0L102.13 0Q100.08 0 99.28-0.65 98.48-1.3 98.48-2.8L98.48-2.8 98.48-34.3Q99.58-34.9 101.36-35.2 103.13-35.5 106.08-35.5L106.08-35.5Q107.44-35.5 108.28-34.83 109.13-34.15 109.13-33.1L109.13-33.1 108.78 0ZM101.69-3.15L105.23-2.85 105.69-3.3 105.98-31.85Q105.98-32.1 105.53-32.15L105.53-32.15 102.44-32.3 101.98-32 101.69-3.15Z" opacity="1" transform="matrix(1,0,0,1,0,0)" fill="#ffffff" class="wordmark-text-0" data-fill-palette-color="primary" id="text-0"></path></svg></g></svg></g></svg></g></svg></g></svg></g><defs></defs></svg><rect width="395.52" height="131.65457102672292" fill="none" stroke="none" visibility="hidden"></rect></g></svg></g></svg>