<svg xmlns="http://www.w3.org/2000/svg" version="1.1" xmlns:xlink="http://www.w3.org/1999/xlink" xmlns:svgjs="http://svgjs.dev/svgjs" width="2000" height="459" viewBox="0 0 2000 459"><g transform="matrix(1,0,0,1,-1.2121212121212466,0.4487060851884337)"><svg viewBox="0 0 396 91" data-background-color="#0f6b42" preserveAspectRatio="xMidYMid meet" height="459" width="2000" xmlns="http://www.w3.org/2000/svg" xmlns:xlink="http://www.w3.org/1999/xlink"><g id="tight-bounds" transform="matrix(1,0,0,1,0.2400000000000091,-0.08895915850141023)"><svg viewBox="0 0 395.52 91.17791831700283" height="91.17791831700283" width="395.52"><g><svg viewBox="0 0 395.52 91.17791831700283" height="91.17791831700283" width="395.52"><g><svg viewBox="0 0 395.52 91.17791831700283" height="91.17791831700283" width="395.52"><g id="textblocktransform"><svg viewBox="0 0 395.52 91.17791831700283" height="91.17791831700283" width="395.52" id="textblock"><g><svg viewBox="0 0 395.52 91.17791831700283" height="91.17791831700283" width="395.52"><g transform="matrix(1,0,0,1,0,0)"><svg width="395.52" viewBox="1.1550000000000191 -25.444215037473235 187.78374728124538 43.28918011821278" height="91.17791831700283" data-palette-color="#d0d823"><path d="M35.165-2.498v0c0.051 0.269 0.073 0.526 0.065 0.772-0.014 0.247-0.085 0.498-0.212 0.753v0l0.103 0.54c0.111 0.583 0.128 1.187 0.05 1.813-0.076 0.632-0.251 1.208-0.525 1.729v0c0.06 0.138 0.104 0.279 0.131 0.423 0.026 0.138 0.051 0.269 0.075 0.393v0c0.111 0.583 0.143 1.052 0.095 1.407-0.049 0.349-0.131 0.646-0.247 0.892-0.117 0.24-0.241 0.46-0.373 0.661-0.139 0.196-0.241 0.429-0.304 0.7v0c-0.096 0.493-0.106 1.008-0.032 1.543 0.074 0.529 0.118 1.046 0.134 1.552v0c-0.202 0.398-0.379 0.805-0.531 1.221-0.157 0.424-0.332 0.837-0.527 1.241-0.195 0.404-0.421 0.783-0.679 1.137-0.259 0.348-0.584 0.658-0.973 0.929v0c-0.183-0.033-0.374-0.037-0.573-0.013-0.199 0.024-0.408 0.047-0.628 0.069-0.212 0.027-0.42 0.039-0.624 0.038-0.204-0.002-0.395-0.043-0.574-0.125v0c-0.314-0.368-0.593-0.762-0.836-1.184-0.251-0.427-0.424-0.886-0.517-1.378v0c-0.026-0.138-0.035-0.326-0.027-0.565 0.002-0.238 0.016-0.485 0.042-0.741 0.025-0.263 0.056-0.506 0.095-0.731 0.039-0.225 0.078-0.392 0.118-0.501v0c0.031-0.087 0.075-0.14 0.133-0.157 0.051-0.017 0.082-0.084 0.094-0.202v0c0.025-0.12 0.031-0.264 0.02-0.431-0.018-0.166-0.044-0.338-0.078-0.514-0.032-0.17-0.065-0.341-0.098-0.511-0.031-0.164-0.05-0.316-0.056-0.458v0c0.11-0.17 0.245-0.423 0.405-0.759 0.155-0.328 0.298-0.678 0.431-1.049 0.134-0.365 0.254-0.717 0.358-1.056 0.112-0.34 0.179-0.611 0.202-0.812v0c0.036-0.17 0.048-0.352 0.038-0.547-0.015-0.187-0.027-0.372-0.034-0.553-0.013-0.174-0.003-0.352 0.03-0.536 0.034-0.176 0.106-0.349 0.217-0.519v0l-0.265-1.385c0.042-0.028 0.086-0.118 0.132-0.27 0.045-0.158 0.09-0.346 0.137-0.565 0.052-0.227 0.093-0.472 0.124-0.737 0.03-0.27 0.057-0.52 0.081-0.748 0.03-0.236 0.048-0.443 0.055-0.621 0.006-0.184 0.003-0.306-0.009-0.365v0c-0.04-0.21-0.099-0.395-0.177-0.557-0.08-0.168-0.137-0.344-0.172-0.527v0c-0.034-0.177-0.017-0.339 0.05-0.488 0.072-0.156 0.092-0.32 0.059-0.49v0c-0.012-0.065-0.061-0.233-0.146-0.501-0.085-0.269-0.174-0.557-0.267-0.865-0.093-0.308-0.176-0.587-0.252-0.838-0.08-0.243-0.123-0.38-0.129-0.413v0c-0.165-0.26-0.394-0.481-0.687-0.663-0.299-0.18-0.621-0.323-0.967-0.427-0.346-0.104-0.695-0.173-1.047-0.207-0.345-0.029-0.658-0.017-0.94 0.036v0c-0.21 0.04-0.386 0.131-0.528 0.274-0.144 0.136-0.271 0.303-0.383 0.501-0.106 0.19-0.2 0.391-0.282 0.603-0.088 0.214-0.172 0.399-0.25 0.557v0l0.054 0.285-0.285 0.054c-0.158 0.274-0.277 0.541-0.356 0.801-0.073 0.258-0.128 0.503-0.165 0.734-0.039 0.225-0.072 0.441-0.1 0.65-0.035 0.21-0.093 0.404-0.174 0.583v0c-0.06 0.113-0.163 0.231-0.309 0.354-0.152 0.131-0.264 0.251-0.339 0.36v0l0.064 0.334c-0.096 0.1-0.199 0.167-0.308 0.201-0.101 0.04-0.192 0.115-0.273 0.225v0l-0.166 0.674c-0.163 0.499-0.36 0.995-0.592 1.487-0.231 0.499-0.398 0.992-0.502 1.48v0c-0.027 0.141-0.019 0.275 0.026 0.402 0.038 0.128 0.03 0.266-0.024 0.412v0c-0.022 0.133-0.064 0.233-0.126 0.299-0.061 0.073-0.078 0.178-0.052 0.315v0c0.03 0.157 0.084 0.296 0.161 0.417 0.07 0.116 0.117 0.242 0.144 0.38v0c0.115 0.602 0.208 1.216 0.28 1.84 0.064 0.619 0.153 1.23 0.268 1.833v0c0.051 0.269 0.127 0.525 0.228 0.77 0.096 0.253 0.166 0.498 0.211 0.734v0c-0.062 0.209-0.071 0.431-0.025 0.666v0c0.06 0.314 0.171 0.629 0.332 0.945 0.154 0.31 0.264 0.638 0.331 0.985v0c0.039 0.203 0.047 0.408 0.026 0.616-0.028 0.209-0.057 0.415-0.086 0.617-0.023 0.201-0.045 0.406-0.067 0.614-0.015 0.206 0.013 0.408 0.085 0.605v0c-0.304 0.472-0.612 0.863-0.926 1.174-0.321 0.312-0.779 0.525-1.375 0.639v0c-0.124 0.024-0.242 0.032-0.351 0.026-0.102-0.001-0.218 0.011-0.35 0.036v0c-0.283-0.129-0.503-0.288-0.66-0.475-0.158-0.187-0.288-0.39-0.391-0.607-0.096-0.219-0.183-0.444-0.261-0.673-0.078-0.23-0.178-0.455-0.301-0.676v0c-0.039-0.06-0.089-0.109-0.15-0.144-0.055-0.037-0.114-0.08-0.177-0.129-0.069-0.041-0.132-0.107-0.191-0.198-0.057-0.084-0.103-0.221-0.139-0.411v0c-0.047-0.249-0.06-0.491-0.037-0.726 0.016-0.234 0.002-0.469-0.043-0.705v0c-0.032-0.17-0.088-0.339-0.168-0.507-0.078-0.162-0.137-0.344-0.175-0.547v0c-0.027-0.144-0.032-0.293-0.014-0.445 0.02-0.146 0.016-0.291-0.012-0.436v0c-0.049-0.255-0.148-0.491-0.297-0.707-0.156-0.215-0.258-0.446-0.306-0.695v0c-0.045-0.236-0.043-0.457 0.006-0.663 0.049-0.206 0.075-0.425 0.078-0.656v0c-0.109-0.074-0.176-0.174-0.199-0.298v0c-0.024-0.124-0.025-0.256-0.004-0.396 0.022-0.133 0.019-0.272-0.008-0.416v0c-0.065-0.341-0.182-0.671-0.352-0.992-0.176-0.319-0.299-0.659-0.368-1.019v0c-0.057-0.301-0.085-0.608-0.084-0.92 0.009-0.307-0.015-0.611-0.072-0.913v0c-0.116-0.433-0.216-0.865-0.298-1.297-0.084-0.439-0.167-0.878-0.251-1.316v0c-0.087-0.458-0.173-0.907-0.257-1.346-0.084-0.439-0.153-0.89-0.207-1.355v0c-0.032-0.17-0.042-0.345-0.029-0.524 0.015-0.172 0.006-0.344-0.027-0.514v0c-0.025-0.131-0.078-0.23-0.158-0.296-0.087-0.065-0.177-0.129-0.271-0.192v0c-0.13-0.254-0.211-0.52-0.243-0.799-0.026-0.28-0.147-0.522-0.363-0.725v0l-0.196 0.038c-0.092 0.017-0.122 0.108-0.091 0.271 0.032 0.17 0.056 0.295 0.071 0.374v0c-0.049 0.172-0.117 0.331-0.204 0.476-0.088 0.146-0.168 0.293-0.241 0.443-0.081 0.144-0.153 0.301-0.216 0.469-0.071 0.163-0.093 0.35-0.066 0.562v0c-0.187 0.049-0.33 0.138-0.428 0.265-0.099 0.121-0.174 0.261-0.225 0.42-0.051 0.159-0.098 0.324-0.14 0.495-0.042 0.171-0.108 0.323-0.198 0.455v0c-0.064 0.094-0.136 0.158-0.218 0.194-0.08 0.042-0.152 0.11-0.216 0.204v0c-0.182 0.327-0.335 0.681-0.458 1.065-0.124 0.383-0.317 0.739-0.581 1.068v0c0.047 0.249 0.044 0.497-0.01 0.745-0.048 0.247-0.112 0.496-0.193 0.749-0.081 0.253-0.158 0.505-0.233 0.757-0.075 0.245-0.105 0.499-0.089 0.76v0c-0.015 0.525 0.055 1.055 0.212 1.589 0.163 0.532 0.292 1.051 0.388 1.555v0l1 5.245c0.092 0.485 0.157 0.968 0.195 1.449 0.044 0.48 0.11 0.95 0.197 1.408v0c0.057 0.301 0.135 0.582 0.232 0.842 0.104 0.259 0.183 0.535 0.239 0.83v0c0.051 0.269 0.055 0.553 0.01 0.853v0c-0.217 0.32-0.542 0.558-0.973 0.715-0.438 0.158-0.837 0.272-1.197 0.34v0c-0.583 0.111-0.996 0.132-1.24 0.063-0.237-0.07-0.419-0.171-0.547-0.303-0.119-0.127-0.227-0.266-0.324-0.416-0.089-0.146-0.276-0.239-0.562-0.28v0c-0.009-0.046-0.013-0.103-0.012-0.171 0.008-0.063 0.008-0.12-0.003-0.172v0c-0.039-0.203-0.107-0.383-0.205-0.541-0.099-0.164-0.167-0.341-0.203-0.532v0c-0.056-0.295-0.058-0.569-0.004-0.824 0.047-0.253 0.041-0.53-0.016-0.831v0c-0.094-0.491-0.232-0.967-0.415-1.428-0.189-0.459-0.331-0.935-0.424-1.426v0c-0.045-0.236-0.038-0.468 0.02-0.696 0.05-0.234 0.053-0.468 0.008-0.704v0c-0.027-0.144-0.077-0.277-0.148-0.399-0.072-0.129-0.121-0.262-0.147-0.4v0c-0.027-0.144-0.031-0.289-0.012-0.435 0.018-0.153 0.016-0.291-0.008-0.416v0c-0.055-0.288-0.146-0.552-0.273-0.793-0.129-0.247-0.22-0.511-0.274-0.793v0c-0.049-0.255-0.073-0.505-0.071-0.749 0.007-0.246-0.013-0.493-0.06-0.742v0c-0.111-0.583-0.26-1.148-0.446-1.697-0.185-0.542-0.32-1.106-0.404-1.694v0c-0.192-1.185-0.421-2.349-0.687-3.493-0.264-1.137-0.508-2.289-0.73-3.455v0c-0.132-0.694-0.248-1.388-0.346-2.082-0.104-0.686-0.171-1.379-0.203-2.079v0c0.307-0.418 0.538-0.737 0.693-0.956 0.154-0.226 0.317-0.403 0.489-0.531 0.174-0.121 0.397-0.215 0.67-0.281 0.271-0.072 0.691-0.169 1.257-0.29v0l0.354-0.068c0.128 0.172 0.272 0.338 0.431 0.498 0.165 0.152 0.324 0.311 0.478 0.479 0.154 0.167 0.289 0.342 0.405 0.524 0.116 0.181 0.197 0.39 0.242 0.625v0c0.054 0.282 0.082 0.575 0.086 0.88 0.009 0.297 0.041 0.589 0.096 0.877v0c0.06 0.314 0.134 0.633 0.223 0.956 0.083 0.33 0.224 0.622 0.422 0.876v0l0.098-0.019c0.059-0.011 0.169-0.165 0.33-0.46 0.156-0.288 0.307-0.615 0.454-0.982 0.152-0.375 0.288-0.734 0.405-1.075 0.125-0.343 0.195-0.563 0.21-0.661v0c0.07-0.129 0.185-0.256 0.345-0.381 0.152-0.131 0.316-0.264 0.494-0.4 0.176-0.142 0.35-0.284 0.519-0.425 0.171-0.134 0.316-0.281 0.436-0.439v0c0.064-0.094 0.114-0.185 0.151-0.273 0.044-0.09 0.104-0.183 0.181-0.279v0c0.103-0.067 0.212-0.115 0.329-0.144 0.117-0.029 0.229-0.064 0.337-0.105 0.109-0.034 0.208-0.084 0.297-0.149 0.095-0.072 0.171-0.168 0.23-0.288v0c0.33-0.049 0.665-0.106 1.006-0.171 0.341-0.065 0.679-0.106 1.015-0.122 0.343-0.018 0.674 0.011 0.993 0.085 0.325 0.067 0.629 0.202 0.913 0.406v0c0.172 0.117 0.315 0.262 0.429 0.438 0.115 0.175 0.22 0.355 0.317 0.54 0.103 0.184 0.212 0.363 0.327 0.538 0.115 0.175 0.249 0.329 0.403 0.463v0l0.113 0.589c0.075 0.393 0.196 0.76 0.363 1.102 0.16 0.343 0.298 0.693 0.414 1.051v0c0.14-0.047 0.246-0.118 0.315-0.213 0.077-0.096 0.131-0.205 0.162-0.326 0.032-0.115 0.067-0.237 0.104-0.366 0.03-0.128 0.077-0.239 0.14-0.332v0c0.262-0.511 0.568-0.974 0.916-1.387 0.341-0.418 0.699-0.819 1.074-1.202 0.375-0.384 0.77-0.748 1.187-1.092 0.415-0.351 0.825-0.71 1.229-1.079v0c0.212-0.169 0.465-0.319 0.759-0.45 0.294-0.131 0.602-0.24 0.925-0.329 0.33-0.083 0.653-0.155 0.967-0.215 0.314-0.06 0.606-0.116 0.874-0.167v0c0.236-0.045 0.43-0.058 0.583-0.04 0.146 0.02 0.282 0.055 0.407 0.106 0.125 0.051 0.253 0.115 0.383 0.192 0.131 0.084 0.293 0.165 0.484 0.243v0c0.477 0.187 0.855 0.339 1.135 0.456 0.287 0.115 0.546 0.228 0.778 0.34 0.232 0.112 0.485 0.247 0.759 0.405 0.281 0.157 0.64 0.367 1.077 0.629v0c0.024 0.124 0.04 0.247 0.05 0.368 0.003 0.122 0.016 0.245 0.04 0.369v0c0.025 0.131 0.065 0.235 0.12 0.313 0.056 0.078 0.112 0.162 0.171 0.252 0.057 0.084 0.119 0.198 0.187 0.341 0.075 0.142 0.137 0.347 0.189 0.616v0c0.017 0.092 0.041 0.162 0.07 0.21 0.037 0.054 0.08 0.097 0.127 0.129 0.047 0.032 0.091 0.068 0.132 0.107 0.035 0.041 0.076 0.097 0.124 0.17v0l0.849 2.902c0.042 0.223 0.037 0.441-0.018 0.655-0.061 0.215-0.071 0.431-0.029 0.647v0c0.085 0.445 0.218 0.875 0.398 1.288 0.174 0.415 0.303 0.841 0.387 1.28zM62.127-7.571v0c0.066 0.59 0.08 1.131 0.041 1.626-0.032 0.493-0.057 1.023-0.074 1.588v0c-0.007 0.356 0.011 0.703 0.056 1.04 0.044 0.331 0.045 0.676 0.005 1.036v0c-0.049 0.281-0.13 0.551-0.241 0.812-0.118 0.268-0.243 0.53-0.375 0.786-0.132 0.256-0.261 0.516-0.386 0.778-0.125 0.262-0.213 0.527-0.264 0.794v0c-0.037 0.212-0.056 0.432-0.057 0.661-0.002 0.222-0.014 0.448-0.035 0.678-0.021 0.23-0.06 0.453-0.116 0.667-0.057 0.214-0.154 0.42-0.294 0.616v0c-0.085 0.137-0.197 0.25-0.334 0.339-0.144 0.09-0.272 0.205-0.384 0.345v0c-0.117 0.154-0.178 0.325-0.184 0.514-0.012 0.189-0.06 0.359-0.144 0.509v0l-0.328 0.037c-0.071 0.088-0.11 0.19-0.117 0.305-0.001 0.114-0.044 0.24-0.129 0.376v0c-0.171 0.214-0.431 0.461-0.783 0.742-0.358 0.281-0.762 0.568-1.212 0.86-0.45 0.292-0.935 0.581-1.452 0.866-0.518 0.286-1.016 0.543-1.494 0.771-0.484 0.235-0.938 0.427-1.365 0.575-0.425 0.155-0.774 0.247-1.045 0.278v0c-0.212 0.024-0.363 0.02-0.454-0.009-0.091-0.03-0.162-0.072-0.216-0.127-0.052-0.048-0.107-0.089-0.164-0.123-0.051-0.035-0.149-0.044-0.295-0.027v0c-0.205 0.023-0.402 0.068-0.589 0.136-0.187 0.068-0.373 0.112-0.558 0.133v0c-0.258 0.029-0.502-0.018-0.73-0.14-0.236-0.128-0.483-0.268-0.742-0.42-0.258-0.146-0.548-0.278-0.869-0.396-0.315-0.119-0.687-0.145-1.115-0.077v0c-0.075-0.072-0.171-0.179-0.288-0.32-0.123-0.141-0.246-0.284-0.37-0.431-0.117-0.148-0.237-0.285-0.358-0.413-0.121-0.121-0.215-0.211-0.282-0.27v0c-0.14-0.112-0.298-0.178-0.475-0.199-0.17-0.021-0.342-0.086-0.514-0.194v0c-0.085-0.037-0.146-0.104-0.184-0.201-0.03-0.091-0.1-0.17-0.208-0.238v0c-0.085-0.037-0.166-0.048-0.245-0.033-0.079 0.016-0.146-0.014-0.201-0.088v0c-0.071-0.039-0.133-0.113-0.186-0.221-0.052-0.108-0.108-0.219-0.168-0.333-0.06-0.114-0.131-0.213-0.214-0.298-0.084-0.091-0.196-0.136-0.337-0.134v0c-0.027-0.239-0.117-0.45-0.272-0.634-0.148-0.185-0.274-0.379-0.377-0.581v0c-0.104-0.21-0.178-0.423-0.222-0.64-0.05-0.209-0.132-0.404-0.247-0.586v0c-0.101-0.183-0.216-0.341-0.345-0.474-0.128-0.127-0.253-0.25-0.373-0.371-0.113-0.115-0.216-0.251-0.308-0.409-0.091-0.157-0.15-0.355-0.177-0.594v0c-0.039-0.351-0.045-0.699-0.016-1.044 0.023-0.338 0.014-0.682-0.025-1.034v0c-0.041-0.364-0.138-0.726-0.292-1.084-0.147-0.353-0.242-0.728-0.287-1.125v0c-0.084-0.749-0.08-1.497 0.011-2.245 0.092-0.741 0.095-1.486 0.012-2.236v0c-0.036-0.318-0.11-0.622-0.223-0.91-0.112-0.283-0.186-0.583-0.221-0.901v0c-0.025-0.225-0.01-0.452 0.045-0.68 0.054-0.234 0.179-0.443 0.372-0.625v0c0.028-0.05 0.028-0.107 0.001-0.171-0.021-0.065-0.034-0.12-0.038-0.167v0c-0.005-0.046 0.007-0.145 0.037-0.296 0.031-0.144 0.066-0.306 0.107-0.485 0.034-0.172 0.065-0.346 0.092-0.523 0.026-0.184 0.044-0.324 0.054-0.419v0c-0.005-0.16 0.017-0.294 0.066-0.4 0.043-0.099 0.103-0.189 0.181-0.271 0.078-0.083 0.156-0.165 0.234-0.248 0.072-0.075 0.132-0.172 0.179-0.291v0c0.101-0.239 0.124-0.48 0.07-0.723-0.061-0.241-0.04-0.482 0.06-0.721v0l0.342-0.179c0.084-0.271 0.154-0.457 0.21-0.557 0.049-0.106 0.094-0.182 0.135-0.226 0.049-0.046 0.095-0.078 0.141-0.096 0.044-0.025 0.101-0.088 0.17-0.19v0c0.041-0.052 0.057-0.124 0.046-0.217-0.01-0.086 0.004-0.172 0.042-0.256v0c0.065-0.135 0.183-0.252 0.353-0.352 0.163-0.099 0.288-0.217 0.373-0.353v0c0.078-0.143 0.139-0.291 0.182-0.443 0.036-0.158 0.111-0.294 0.226-0.408v0c0.13-0.155 0.317-0.287 0.559-0.394 0.249-0.108 0.463-0.24 0.641-0.394v0c0.158-0.145 0.288-0.301 0.39-0.466 0.103-0.159 0.256-0.294 0.458-0.404v0c0.101-0.058 0.254-0.129 0.46-0.212 0.198-0.089 0.41-0.17 0.637-0.242 0.227-0.072 0.441-0.136 0.642-0.193 0.202-0.056 0.365-0.091 0.492-0.105v0c0.371-0.041 0.731-0.035 1.079 0.02 0.356 0.061 0.709 0.072 1.06 0.033v0c0.305-0.034 0.59-0.089 0.857-0.166 0.259-0.083 0.524-0.139 0.796-0.17v0c0.689-0.077 1.29-0.074 1.802 0.01 0.518 0.076 0.979 0.203 1.381 0.379 0.395 0.171 0.756 0.368 1.082 0.593 0.32 0.219 0.622 0.43 0.906 0.634 0.278 0.204 0.556 0.387 0.836 0.55 0.273 0.164 0.572 0.258 0.897 0.282v0c0.133 0.294 0.338 0.506 0.615 0.636 0.283 0.129 0.548 0.284 0.796 0.464v0c0.055 0.255 0.145 0.487 0.269 0.695 0.118 0.215 0.245 0.425 0.383 0.631 0.136 0.199 0.272 0.396 0.407 0.589 0.136 0.199 0.248 0.415 0.334 0.646v0c0.108 0.243 0.168 0.484 0.182 0.725 0.007 0.241 0.063 0.469 0.167 0.685v0c0.142 0.373 0.313 0.73 0.512 1.07 0.199 0.34 0.365 0.687 0.499 1.041v0c0.093 0.231 0.153 0.466 0.179 0.705 0.027 0.239 0.076 0.468 0.147 0.688v0c0.154 0.479 0.294 0.916 0.419 1.311 0.124 0.389 0.214 0.838 0.271 1.348zM57.096-7.3v0c-0.025-0.225-0.1-0.415-0.224-0.569-0.118-0.155-0.228-0.333-0.332-0.536v0c-0.23-0.437-0.378-0.917-0.443-1.44-0.064-0.516-0.196-1.004-0.395-1.465v0c-0.13-0.321-0.361-0.681-0.694-1.08-0.34-0.398-0.715-0.785-1.126-1.162-0.41-0.37-0.83-0.705-1.26-1.006-0.429-0.301-0.811-0.503-1.144-0.607v0l-0.257-0.313c-0.098-0.036-0.22-0.046-0.365-0.03-0.146 0.016-0.284 0.008-0.415-0.024v0c-0.379-0.092-0.745-0.185-1.098-0.279-0.346-0.095-0.728-0.12-1.145-0.074v0c-0.537 0.06-0.948 0.19-1.235 0.39-0.286 0.2-0.528 0.411-0.724 0.634-0.203 0.224-0.398 0.43-0.585 0.619-0.193 0.196-0.456 0.303-0.789 0.32v0c0.029 0.258 0 0.483-0.086 0.673-0.079 0.197-0.182 0.383-0.31 0.558-0.128 0.175-0.253 0.35-0.374 0.525-0.128 0.175-0.21 0.372-0.246 0.591v0c-0.019 0.13-0.029 0.372-0.029 0.728-0.001 0.356 0.006 0.744 0.02 1.165 0.014 0.428 0.036 0.834 0.065 1.22 0.022 0.38 0.043 0.659 0.064 0.838v0c0.009 0.08 0.001 0.161-0.023 0.244-0.018 0.082-0.039 0.165-0.063 0.249v0c0.019 0.467 0.048 0.937 0.087 1.409 0.033 0.473 0.075 0.938 0.126 1.394v0c0.02 0.179 0.073 0.445 0.159 0.798 0.093 0.352 0.204 0.749 0.335 1.19 0.131 0.448 0.27 0.919 0.419 1.412 0.155 0.486 0.307 0.948 0.457 1.388 0.156 0.432 0.3 0.822 0.433 1.169 0.139 0.347 0.258 0.595 0.355 0.745v0c0.1 0.17 0.211 0.295 0.333 0.375 0.117 0.088 0.224 0.206 0.322 0.357v0c0.062 0.074 0.097 0.15 0.106 0.23 0.009 0.08 0.058 0.155 0.146 0.225v0c0.178 0.154 0.389 0.268 0.632 0.342 0.236 0.068 0.468 0.169 0.698 0.304v0c0.259 0.038 0.451 0.101 0.574 0.187 0.124 0.093 0.259 0.186 0.404 0.277 0.15 0.084 0.345 0.149 0.585 0.196 0.233 0.048 0.605 0.043 1.116-0.013v0c0.258-0.029 0.42-0.081 0.485-0.155 0.06-0.067 0.181-0.151 0.365-0.252v0c0.17-0.1 0.341-0.159 0.513-0.179 0.179-0.02 0.328-0.064 0.448-0.13v0c0.24-0.315 0.531-0.62 0.874-0.913 0.349-0.301 0.614-0.629 0.796-0.984v0c0.067-0.122 0.087-0.238 0.061-0.349-0.026-0.111-0.004-0.218 0.065-0.32v0c0.037-0.085 0.102-0.142 0.192-0.172 0.098-0.024 0.166-0.079 0.204-0.164v0c0.19-0.343 0.311-0.732 0.362-1.167 0.059-0.436 0.181-0.839 0.368-1.208v0c0.073-0.189 0.189-0.353 0.348-0.492 0.166-0.139 0.277-0.316 0.333-0.53v0c0.046-0.186 0.07-0.39 0.072-0.612 0.008-0.229 0.002-0.463-0.018-0.702-0.013-0.24-0.03-0.48-0.05-0.719-0.02-0.239-0.025-0.467-0.016-0.683v0c0.014-0.176 0.052-0.375 0.115-0.596 0.062-0.228 0.124-0.453 0.186-0.675 0.062-0.228 0.118-0.446 0.168-0.653 0.051-0.207 0.069-0.373 0.055-0.499zM87.041-21.882v0c0.058 1.205-0.019 2.43-0.232 3.675v0c-0.029 0.368-0.098 0.736-0.207 1.101-0.102 0.365-0.145 0.725-0.128 1.078v0c0.009 0.18 0.044 0.352 0.105 0.515 0.055 0.164 0.086 0.333 0.094 0.506v0c0.009 0.193-0.004 0.391-0.041 0.593-0.044 0.202-0.084 0.401-0.121 0.597-0.037 0.195-0.068 0.394-0.092 0.595-0.024 0.201-0.014 0.398 0.029 0.589v0c-0.229 0.238-0.392 0.516-0.49 0.835-0.098 0.318-0.179 0.649-0.243 0.993-0.063 0.35-0.137 0.691-0.22 1.021-0.09 0.338-0.24 0.632-0.448 0.883v0c0.011 0.914-0.095 1.83-0.318 2.749-0.223 0.912-0.678 1.715-1.365 2.409v0c0.037 0.078 0.064 0.15 0.081 0.216 0.023 0.059 0.035 0.112 0.038 0.158v0c0.012 0.246-0.03 0.482-0.126 0.707-0.096 0.232-0.161 0.458-0.198 0.681v0c-0.065 0.31-0.094 0.609-0.086 0.895 0.008 0.293-0.032 0.579-0.119 0.857v0c-0.071 0.19-0.163 0.365-0.275 0.524-0.112 0.159-0.228 0.315-0.348 0.467-0.12 0.146-0.233 0.298-0.338 0.457-0.106 0.159-0.184 0.336-0.235 0.532v0c-0.059 0.163-0.09 0.338-0.094 0.525-0.011 0.181-0.019 0.365-0.024 0.552-0.011 0.187-0.019 0.365-0.024 0.532-0.005 0.167-0.038 0.326-0.097 0.475v0c-0.04 0.142-0.135 0.25-0.285 0.324-0.15 0.074-0.261 0.183-0.334 0.326v0c-0.115 0.246-0.222 0.518-0.321 0.817-0.099 0.292-0.209 0.584-0.328 0.877-0.126 0.293-0.262 0.577-0.41 0.851-0.147 0.274-0.312 0.512-0.496 0.714v0c-0.393 0.146-0.809 0.253-1.246 0.321-0.437 0.068-0.856 0.112-1.255 0.131v0c-0.386 0.019-0.66 0.022-0.82 0.01-0.161-0.019-0.28-0.053-0.356-0.103-0.076-0.056-0.143-0.123-0.2-0.201-0.057-0.077-0.195-0.167-0.413-0.27v0c-0.115-0.041-0.226-0.059-0.333-0.054-0.113 0.005-0.221-0.013-0.323-0.054v0c-0.131-0.087-0.249-0.258-0.355-0.514-0.112-0.248-0.228-0.443-0.349-0.584v0c-0.102-0.169-0.214-0.347-0.336-0.534-0.123-0.188-0.235-0.376-0.338-0.564v0c-0.16-0.279-0.3-0.61-0.418-0.991-0.125-0.381-0.263-0.755-0.415-1.122-0.158-0.373-0.348-0.701-0.568-0.983-0.221-0.29-0.504-0.49-0.85-0.6v0c-0.011-0.226-0.064-0.427-0.16-0.603-0.096-0.182-0.207-0.354-0.335-0.514-0.128-0.161-0.256-0.328-0.385-0.502-0.128-0.167-0.23-0.346-0.306-0.536v0c-0.125-0.234-0.181-0.492-0.168-0.773 0.006-0.281-0.036-0.539-0.127-0.775v0c-0.059-0.244-0.129-0.451-0.21-0.62-0.082-0.17-0.159-0.323-0.233-0.459-0.08-0.13-0.156-0.259-0.229-0.39-0.066-0.124-0.13-0.264-0.191-0.421v0c-0.108-0.295-0.186-0.608-0.235-0.94-0.049-0.325-0.118-0.645-0.207-0.961-0.082-0.316-0.206-0.607-0.373-0.873-0.166-0.266-0.431-0.486-0.793-0.662v0c0.03-0.062 0.042-0.176 0.034-0.342v0c-0.008-0.173-0.046-0.335-0.114-0.485-0.061-0.151-0.131-0.301-0.212-0.451-0.08-0.143-0.164-0.289-0.251-0.438-0.087-0.149-0.148-0.303-0.183-0.462v0c-0.099-0.382-0.168-0.776-0.207-1.181-0.033-0.406-0.086-0.81-0.159-1.214-0.066-0.397-0.165-0.78-0.296-1.147-0.125-0.374-0.342-0.714-0.65-1.019v0c0.059-0.163 0.086-0.301 0.08-0.415v0c-0.009-0.193-0.051-0.371-0.126-0.534-0.068-0.164-0.142-0.323-0.224-0.48-0.081-0.156-0.159-0.316-0.233-0.479-0.068-0.17-0.107-0.349-0.116-0.535v0c-0.017-0.353-0.018-0.71-0.002-1.072 0.009-0.368 0.004-0.734-0.013-1.1v0c-0.01-0.206 0.056-0.433 0.197-0.681 0.142-0.247 0.32-0.483 0.537-0.706 0.21-0.217 0.438-0.398 0.684-0.544 0.24-0.152 0.456-0.232 0.649-0.242v0c0.193-0.009 0.381 0.015 0.564 0.073 0.19 0.058 0.373 0.122 0.55 0.194 0.184 0.071 0.364 0.143 0.541 0.214 0.184 0.071 0.362 0.109 0.536 0.114v0c0.058 0.224 0.154 0.43 0.291 0.617 0.129 0.181 0.261 0.361 0.396 0.541 0.136 0.18 0.271 0.364 0.407 0.551 0.136 0.18 0.242 0.375 0.319 0.585v0c0.092 0.236 0.137 0.494 0.138 0.775-0.006 0.281 0.023 0.546 0.088 0.796v0c0.093 0.269 0.208 0.507 0.345 0.714 0.137 0.2 0.251 0.425 0.343 0.674v0c0.05 0.064 0.077 0.143 0.082 0.237v0c0.007 0.146-0.023 0.288-0.09 0.425-0.06 0.143-0.086 0.288-0.079 0.434v0c0.005 0.107 0.046 0.251 0.121 0.435 0.082 0.183 0.172 0.375 0.269 0.577 0.103 0.202 0.203 0.401 0.299 0.597 0.096 0.196 0.164 0.349 0.202 0.46v0c0.165 0.379 0.3 0.82 0.405 1.322 0.104 0.496 0.209 0.998 0.313 1.507 0.105 0.509 0.218 0.997 0.341 1.465 0.129 0.468 0.289 0.867 0.479 1.198v0c0.086 0.123 0.201 0.221 0.345 0.294 0.137 0.073 0.249 0.178 0.335 0.314v0c0.125 0.241 0.238 0.502 0.338 0.785 0.107 0.282 0.214 0.56 0.321 0.835 0.107 0.275 0.233 0.543 0.38 0.803 0.139 0.26 0.317 0.479 0.532 0.655v0c0.066 0.404 0.16 0.763 0.282 1.077 0.122 0.314 0.253 0.615 0.394 0.902 0.141 0.294 0.295 0.583 0.463 0.869 0.168 0.292 0.329 0.601 0.485 0.928v0c0.145-0.04 0.291-0.128 0.438-0.262 0.147-0.134 0.276-0.287 0.388-0.459 0.111-0.179 0.203-0.36 0.274-0.544 0.071-0.19 0.102-0.365 0.095-0.525v0c-0.008-0.173-0.05-0.345-0.125-0.515-0.068-0.164-0.106-0.332-0.114-0.505v0c-0.011-0.226 0.061-0.467 0.215-0.721 0.154-0.261 0.267-0.487 0.338-0.677v0c0.182-0.509 0.308-1.019 0.376-1.53 0.062-0.504 0.168-1.009 0.317-1.517v0c0.045-0.176 0.117-0.343 0.216-0.501 0.106-0.159 0.154-0.328 0.146-0.508v0c-0.006-0.127-0.041-0.218-0.104-0.275v0c0.073-0.137 0.181-0.469 0.322-0.997 0.141-0.527 0.277-1.101 0.408-1.722 0.13-0.627 0.241-1.216 0.334-1.768 0.093-0.552 0.136-0.908 0.129-1.068v0c-0.009-0.186-0.039-0.385-0.089-0.596-0.05-0.204-0.103-0.409-0.16-0.613v0c0.11-0.072 0.194-0.19 0.253-0.353 0.052-0.163 0.104-0.339 0.155-0.528 0.045-0.182 0.086-0.368 0.123-0.556 0.038-0.189 0.093-0.348 0.167-0.479v0c0.122-0.246 0.215-0.531 0.279-0.854 0.064-0.324 0.112-0.656 0.142-0.999 0.03-0.335 0.047-0.673 0.051-1.013-0.003-0.334-0.011-0.63-0.023-0.89v0c-0.015-0.32-0.064-0.624-0.144-0.914-0.074-0.297-0.119-0.595-0.134-0.895v0c-0.015-0.32 0.009-0.568 0.074-0.744 0.059-0.17 0.139-0.307 0.241-0.412 0.101-0.112 0.203-0.227 0.303-0.345 0.108-0.119 0.197-0.277 0.268-0.474v0c0.171-0.469 0.389-0.866 0.653-1.193 0.265-0.327 0.676-0.503 1.236-0.53v0c0.546-0.026 1.01 0.055 1.393 0.243 0.376 0.189 0.683 0.451 0.919 0.786 0.243 0.335 0.419 0.724 0.527 1.166 0.115 0.442 0.184 0.895 0.206 1.362zM112.079-0.345v0l-0.002 0.19c0.015 0.454-0.056 0.823-0.212 1.108-0.156 0.285-0.356 0.533-0.598 0.743-0.242 0.204-0.518 0.391-0.826 0.561-0.309 0.177-0.614 0.367-0.917 0.57v0l-0.002 0.19c-0.003 0.273-0.049 0.533-0.138 0.779-0.096 0.252-0.169 0.505-0.219 0.757v0l-0.1-0.001c-0.24-0.036-0.45 0.002-0.631 0.113-0.188 0.111-0.368 0.166-0.542 0.165v0c-0.147-0.002-0.299-0.05-0.458-0.145v0c-0.16 0.025-0.264 0.077-0.312 0.156-0.048 0.079-0.099 0.169-0.153 0.269-0.048 0.093-0.119 0.175-0.213 0.247-0.101 0.072-0.271 0.107-0.511 0.105v0c-0.08-0.001-0.17 0.041-0.271 0.127-0.108 0.086-0.222 0.184-0.343 0.296-0.121 0.112-0.239 0.221-0.354 0.326-0.114 0.099-0.202 0.164-0.262 0.197v0c-0.081 0.046-0.187 0.075-0.321 0.087-0.127 0.005-0.267 0.01-0.42 0.015-0.153 0.005-0.3 0.01-0.44 0.015-0.147 0.012-0.277 0.024-0.391 0.036v0c-0.127 0.032-0.244 0.094-0.352 0.186-0.101 0.099-0.202 0.148-0.302 0.147v0c-0.127-0.001-0.243-0.036-0.348-0.104-0.099-0.068-0.212-0.102-0.339-0.104v0c-0.113-0.001-0.25 0.031-0.411 0.096-0.161 0.065-0.338 0.136-0.533 0.214-0.194 0.078-0.405 0.146-0.632 0.203-0.221 0.064-0.451 0.095-0.691 0.093v0c-0.327-0.004-0.609-0.057-0.848-0.16v0c-0.013 0-0.103-0.051-0.269-0.152-0.172-0.109-0.381-0.244-0.625-0.407-0.245-0.163-0.51-0.339-0.795-0.529-0.291-0.183-0.563-0.359-0.814-0.529-0.258-0.176-0.473-0.322-0.645-0.437-0.172-0.109-0.275-0.173-0.308-0.193v0l-0.146-0.332c-0.219-0.102-0.414-0.228-0.586-0.376-0.165-0.142-0.293-0.333-0.384-0.575v0c-0.159-0.102-0.294-0.227-0.406-0.374-0.112-0.155-0.223-0.312-0.335-0.474-0.112-0.161-0.23-0.313-0.355-0.454-0.125-0.135-0.284-0.236-0.477-0.305v0c-0.143-0.322-0.276-0.643-0.399-0.964-0.123-0.321-0.246-0.643-0.37-0.964v0l-0.336-0.294c-0.032-0.1-0.031-0.194 0.003-0.28 0.034-0.086 0.052-0.169 0.052-0.25v0c0.001-0.067-0.051-0.204-0.155-0.411-0.098-0.208-0.205-0.436-0.323-0.684-0.124-0.255-0.235-0.503-0.332-0.743-0.104-0.241-0.155-0.425-0.154-0.552v0c0.003-0.24 0.029-0.473 0.078-0.699 0.056-0.219 0.085-0.442 0.087-0.669v0c0.002-0.193-0.036-0.384-0.113-0.572-0.078-0.181-0.133-0.368-0.164-0.562v0c-0.044-0.26-0.054-0.527-0.032-0.8 0.03-0.266 0.046-0.53 0.049-0.789v0c0.002-0.193-0.029-0.387-0.094-0.582-0.058-0.187-0.086-0.388-0.083-0.6v0c0.002-0.193 0.057-0.369 0.166-0.529 0.115-0.159 0.174-0.325 0.175-0.498v0c0.006-0.513-0.059-1.024-0.193-1.532-0.141-0.508-0.209-1.016-0.203-1.522v0c0.004-0.407 0.113-0.839 0.324-1.297 0.212-0.464 0.472-0.815 0.781-1.051v0l0.013-1.13c0.147-0.032 0.258-0.104 0.332-0.217 0.068-0.113 0.129-0.239 0.184-0.378 0.048-0.146 0.093-0.296 0.135-0.448 0.042-0.153 0.093-0.282 0.154-0.389v0c0.088-0.146 0.173-0.271 0.254-0.377 0.081-0.099 0.152-0.202 0.214-0.308 0.068-0.106 0.119-0.225 0.154-0.358 0.028-0.133 0.037-0.306 0.025-0.52v0c0.274-0.09 0.526-0.224 0.755-0.401 0.222-0.171 0.444-0.352 0.666-0.543 0.215-0.191 0.441-0.372 0.676-0.543 0.235-0.177 0.497-0.311 0.784-0.401v0c0.21-0.271 0.559-0.537 1.049-0.799 0.483-0.255 0.972-0.493 1.468-0.714 0.502-0.221 0.945-0.413 1.326-0.575 0.388-0.162 0.593-0.284 0.614-0.364v0c0.446 0.052 0.909 0.08 1.389 0.085 0.48 0.005 0.96 0.017 1.44 0.036 0.48 0.025 0.953 0.077 1.418 0.156 0.466 0.078 0.904 0.213 1.316 0.404v0c0.052 0.101 0.111 0.191 0.177 0.272 0.072 0.081 0.142 0.158 0.208 0.232 0.066 0.074 0.122 0.158 0.167 0.252 0.046 0.094 0.068 0.207 0.066 0.341v0c0.578 0.226 1.083 0.602 1.518 1.126 0.434 0.531 0.794 1.122 1.081 1.772 0.293 0.65 0.506 1.326 0.638 2.027 0.139 0.702 0.205 1.339 0.199 1.913v0c-0.002 0.18-0.04 0.323-0.115 0.429-0.075 0.113-0.143 0.248-0.204 0.407v0c-0.082 0.146-0.117 0.305-0.106 0.479 0.018 0.18-0.014 0.333-0.095 0.459v0c-0.083 0.239-0.208 0.454-0.377 0.646-0.162 0.192-0.308 0.397-0.437 0.615v0c-0.294 0.67-0.605 1.327-0.931 1.97-0.327 0.636-0.72 1.256-1.18 1.858v0c-0.176 0.225-0.385 0.439-0.628 0.643-0.242 0.204-0.398 0.459-0.468 0.765v0c-0.287-0.003-0.511 0.061-0.672 0.192-0.162 0.138-0.306 0.283-0.435 0.436-0.135 0.152-0.283 0.29-0.444 0.415-0.161 0.125-0.385 0.179-0.672 0.162v0c-0.129 0.219-0.265 0.414-0.407 0.586-0.135 0.165-0.284 0.344-0.446 0.535v0c-0.16-0.002-0.294 0.033-0.401 0.106-0.101 0.066-0.208 0.144-0.322 0.236-0.114 0.085-0.235 0.157-0.363 0.216-0.134 0.065-0.294 0.09-0.481 0.075v0c-0.149 0.205-0.321 0.383-0.515 0.535-0.195 0.151-0.393 0.296-0.595 0.433-0.202 0.144-0.39 0.299-0.565 0.464-0.182 0.165-0.321 0.367-0.417 0.605v0c-0.181 0.051-0.388 0.096-0.621 0.134-0.227 0.038-0.382 0.153-0.464 0.345v0c-0.003 0.3 0.057 0.584 0.181 0.852 0.124 0.268 0.369 0.404 0.735 0.408v0c0.131 0.241 0.298 0.447 0.503 0.615 0.205 0.169 0.41 0.344 0.615 0.527v0c0.4-0.029 0.804-0.025 1.21 0.013 0.4 0.031 0.8 0.049 1.199 0.053v0c0.48 0.005 0.857-0.031 1.131-0.107 0.274-0.077 0.495-0.165 0.663-0.263 0.168-0.105 0.312-0.2 0.433-0.285 0.121-0.085 0.272-0.137 0.452-0.156v0c0.224-0.398 0.459-0.778 0.703-1.142 0.244-0.371 0.584-0.624 1.018-0.759v0c0.136-0.239 0.285-0.48 0.448-0.725 0.163-0.252 0.312-0.507 0.448-0.765 0.143-0.265 0.243-0.534 0.299-0.807 0.056-0.273 0.056-0.553-0.001-0.84v0c0.142-0.192 0.308-0.433 0.498-0.725 0.19-0.298 0.396-0.582 0.62-0.853 0.23-0.271 0.469-0.502 0.717-0.692 0.255-0.184 0.52-0.274 0.793-0.272v0c0.253 0.003 0.476 0.089 0.667 0.258 0.192 0.169 0.356 0.351 0.495 0.545v0c0.319 0.05 0.588 0.17 0.806 0.359 0.211 0.182 0.376 0.401 0.493 0.655 0.117 0.248 0.201 0.519 0.251 0.813 0.043 0.3 0.064 0.587 0.06 0.861v0c-0.005 0.493-0.088 1.036-0.247 1.627-0.16 0.592-0.418 1.062-0.776 1.412zM104.328-16.781v0c-0.08 0.019-0.133 0.005-0.16-0.041-0.02-0.04-0.039-0.087-0.058-0.141-0.013-0.053-0.029-0.11-0.048-0.171-0.013-0.053-0.036-0.104-0.068-0.15v0c-0.079-0.101-0.241-0.216-0.487-0.346-0.245-0.129-0.517-0.249-0.816-0.359-0.292-0.11-0.588-0.206-0.887-0.289-0.292-0.083-0.512-0.126-0.658-0.127v0c-0.32-0.003-0.581 0.05-0.782 0.161-0.201 0.111-0.383 0.229-0.544 0.354-0.161 0.132-0.319 0.25-0.474 0.355-0.155 0.112-0.345 0.176-0.572 0.194v0c-0.002 0.14-0.04 0.273-0.115 0.398-0.068 0.133-0.156 0.255-0.264 0.368-0.108 0.105-0.212 0.214-0.313 0.326-0.108 0.112-0.192 0.225-0.254 0.337v0c-0.136 0.239-0.229 0.498-0.278 0.777-0.05 0.279-0.133 0.555-0.249 0.828v0c-0.13 0.305-0.27 0.587-0.42 0.845-0.143 0.265-0.266 0.557-0.369 0.876v0l-0.364 0.336c-0.083 0.299-0.13 0.615-0.14 0.949-0.01 0.327-0.017 0.65-0.021 0.97v0c-0.005 0.42 0.038 0.817 0.127 1.191 0.089 0.381 0.148 0.778 0.177 1.192v0c-0.002 0.147-0.02 0.303-0.055 0.47-0.028 0.166-0.044 0.34-0.046 0.519v0c-0.001 0.08 0.002 0.15 0.008 0.21 0.006 0.067 0.032 0.14 0.078 0.221v0l0.12 0.001c0.18 0.015 0.333-0.006 0.46-0.065 0.127-0.065 0.248-0.144 0.363-0.236 0.114-0.099 0.219-0.208 0.313-0.326 0.101-0.119 0.216-0.234 0.344-0.347v0c0.094-0.079 0.198-0.125 0.312-0.136 0.113-0.012 0.227-0.058 0.341-0.136v0c0.081-0.079 0.128-0.165 0.143-0.259 0.021-0.086 0.072-0.169 0.153-0.248v0c0.141-0.125 0.323-0.236 0.544-0.334 0.214-0.091 0.412-0.182 0.593-0.274v0c0.194-0.098 0.359-0.216 0.493-0.354 0.135-0.145 0.273-0.29 0.415-0.436 0.135-0.139 0.283-0.267 0.444-0.385 0.161-0.118 0.356-0.203 0.583-0.254v0c0.101-0.112 0.223-0.291 0.366-0.536 0.149-0.245 0.296-0.51 0.439-0.795 0.15-0.292 0.286-0.577 0.409-0.856 0.123-0.279 0.202-0.498 0.237-0.657v0l0.1 0.001c0.16 0.002 0.284-0.047 0.372-0.146 0.088-0.106 0.196-0.198 0.323-0.276v0c0.082-0.179 0.137-0.359 0.166-0.539 0.029-0.186 0.044-0.366 0.046-0.539v0c0.004-0.373-0.022-0.727-0.079-1.061-0.05-0.341-0.032-0.694 0.052-1.06zM134.664 6.068v0c-0.026 0.386-0.132 0.716-0.317 0.991-0.186 0.281-0.407 0.537-0.663 0.767-0.256 0.23-0.535 0.452-0.837 0.665-0.295 0.214-0.57 0.433-0.825 0.656v0c-0.078-0.039-0.146-0.06-0.207-0.064-0.067-0.004-0.14-0.009-0.219-0.014v0c-0.273-0.018-0.548-0.003-0.825 0.044-0.277 0.042-0.548 0.053-0.814 0.036v0c-0.659-0.044-1.305-0.171-1.939-0.382-0.641-0.21-1.297-0.338-1.969-0.383v0c-0.592-0.04-1.186-0.053-1.781-0.039-0.596 0.02-1.197 0.01-1.802-0.032v0c-0.818-0.055-1.634-0.047-2.447 0.026-0.82 0.072-1.636 0.08-2.448 0.026v0c-0.353-0.024-0.697-0.067-1.033-0.13-0.33-0.062-0.653-0.127-0.969-0.196v0c-0.164-0.238-0.323-0.466-0.475-0.683-0.152-0.217-0.294-0.444-0.426-0.68v0c-0.071-0.132-0.105-0.271-0.102-0.418 0.003-0.14-0.042-0.263-0.135-0.37v0c-0.043-0.063-0.086-0.106-0.132-0.129-0.046-0.016-0.091-0.036-0.136-0.059-0.052-0.017-0.097-0.047-0.134-0.09-0.037-0.043-0.058-0.128-0.064-0.254v0c0.005-0.08 0.001-0.157-0.014-0.232-0.008-0.074-0.009-0.158-0.003-0.251v0c0.031-0.466 0.179-0.87 0.442-1.213 0.264-0.343 0.499-0.708 0.706-1.095v0c0.09-0.141 0.15-0.294 0.181-0.459 0.038-0.171 0.118-0.316 0.24-0.434v0c0.091-0.154 0.198-0.264 0.322-0.33 0.125-0.065 0.238-0.158 0.34-0.277v0c0.349-0.424 0.726-0.863 1.131-1.317 0.398-0.454 0.727-0.923 0.987-1.407v0c0.033-0.091 0.058-0.173 0.076-0.246 0.012-0.073 0.043-0.147 0.095-0.224v0l0.319-0.119c0.167-0.296 0.284-0.596 0.351-0.898 0.067-0.303 0.2-0.581 0.397-0.835v0c0.191-0.261 0.433-0.472 0.725-0.633 0.291-0.154 0.557-0.337 0.798-0.548v0c0.015-0.22 0.102-0.421 0.261-0.603 0.153-0.183 0.253-0.387 0.302-0.612v0c0.272-0.175 0.503-0.38 0.693-0.614 0.196-0.234 0.376-0.479 0.54-0.736 0.171-0.256 0.336-0.519 0.495-0.788 0.152-0.27 0.333-0.525 0.542-0.766v0c0.088-0.121 0.201-0.214 0.34-0.277 0.145-0.064 0.262-0.166 0.351-0.307v0c0.22-0.386 0.452-0.765 0.698-1.136 0.252-0.364 0.481-0.749 0.689-1.156v0c0.212-0.373 0.392-0.759 0.539-1.157 0.147-0.398 0.346-0.772 0.597-1.122v0c-1.592 0.02-3.159-0.016-4.704-0.107-1.545-0.084-3.109-0.166-4.694-0.245v0c0.003-0.047-0.055-0.131-0.173-0.253-0.126-0.115-0.207-0.248-0.244-0.397v0c-0.077-0.052-0.183-0.109-0.319-0.172-0.143-0.056-0.236-0.116-0.279-0.179v0c-0.041-0.083-0.059-0.164-0.053-0.244 0.005-0.08-0.023-0.162-0.084-0.246v0c-0.072-0.118-0.146-0.214-0.221-0.286-0.075-0.072-0.144-0.143-0.207-0.214-0.055-0.077-0.099-0.174-0.13-0.29-0.032-0.116-0.042-0.277-0.028-0.482v0c0.025-0.366 0.12-0.734 0.285-1.104 0.171-0.363 0.287-0.736 0.346-1.119v0c0.281-0.108 0.519-0.262 0.712-0.463 0.2-0.194 0.416-0.37 0.647-0.528v0c0.149-0.023 0.379-0.028 0.693-0.014 0.314 0.008 0.663 0.021 1.05 0.041 0.38 0.019 0.776 0.039 1.188 0.06 0.406 0.021 0.783 0.026 1.132 0.016 0.341-0.01 0.64-0.03 0.896-0.06 0.249-0.03 0.41-0.093 0.483-0.188v0c0.18 0.112 0.388 0.19 0.626 0.233 0.244 0.05 0.446 0.17 0.607 0.361v0c0.177-0.042 0.38-0.088 0.611-0.139 0.231-0.058 0.469-0.115 0.713-0.172 0.244-0.057 0.475-0.102 0.691-0.134 0.223-0.032 0.404-0.043 0.543-0.034v0c0.08 0.005 0.148 0.033 0.205 0.084 0.05 0.05 0.142 0.08 0.275 0.089v0c0.093 0.006 0.219-0.032 0.378-0.115 0.16-0.089 0.304-0.143 0.432-0.161v0c0.403-0.026 0.847-0.033 1.335-0.021 0.494 0.007 0.931 0.023 1.309 0.048v0c0.419 0.028 0.826 0.136 1.221 0.323 0.402 0.187 0.825 0.296 1.271 0.326v0c0.253 0.017 0.479-0.015 0.678-0.094v0c0.193 0.207 0.42 0.362 0.68 0.466 0.26 0.104 0.495 0.244 0.704 0.418v0c0.018 0.035 0.039 0.166 0.063 0.396 0.025 0.222 0.049 0.468 0.071 0.736 0.022 0.269 0.038 0.524 0.049 0.765 0.004 0.241 0.004 0.384 0.001 0.431v0c-0.012 0.173-0.077 0.349-0.196 0.528-0.112 0.18-0.244 0.351-0.396 0.515-0.145 0.171-0.297 0.338-0.454 0.5-0.151 0.164-0.273 0.326-0.364 0.487v0c-0.091 0.168-0.154 0.35-0.187 0.549-0.027 0.199-0.086 0.385-0.178 0.559v0c-0.091 0.154-0.208 0.36-0.352 0.618-0.151 0.264-0.313 0.524-0.484 0.779-0.164 0.256-0.343 0.478-0.536 0.665-0.186 0.188-0.378 0.299-0.573 0.333v0c-0.013 0.193-0.056 0.384-0.129 0.572-0.066 0.189-0.145 0.368-0.237 0.536v0l-0.368 0.115c-0.056 0.13-0.081 0.262-0.077 0.396 0.011 0.141-0.028 0.272-0.117 0.393v0c-0.059 0.09-0.137 0.144-0.231 0.165-0.101 0.013-0.194 0.057-0.28 0.131v0c-0.271 0.256-0.483 0.576-0.635 0.96-0.153 0.384-0.346 0.728-0.581 1.033v0c-0.326 0.379-0.6 0.775-0.822 1.188-0.222 0.413-0.483 0.816-0.783 1.21v0c-0.191 0.261-0.397 0.494-0.618 0.7-0.214 0.199-0.416 0.423-0.607 0.67v0c-0.789 1.003-1.508 2.05-2.156 3.143-0.641 1.086-1.279 2.179-1.914 3.278v0c0.166 0.111 0.375 0.179 0.627 0.203 0.246 0.023 0.495 0.043 0.748 0.06 0.259 0.017 0.505 0.047 0.736 0.09 0.231 0.036 0.412 0.131 0.542 0.287v0c0.257 0.051 0.456 0.021 0.597-0.09 0.148-0.11 0.318-0.209 0.511-0.296v0c0.224 0.048 0.415 0.138 0.573 0.269 0.165 0.131 0.339 0.22 0.524 0.266v0c0.325-0.058 0.649-0.167 0.974-0.326 0.324-0.152 0.656-0.216 0.995-0.193v0c0.319 0.021 0.626 0.126 0.921 0.312 0.288 0.186 0.592 0.29 0.911 0.312v0c0.259 0.017 0.498 0 0.715-0.052 0.224-0.058 0.446-0.08 0.666-0.065v0c0.306 0.021 0.588 0.103 0.845 0.247 0.251 0.144 0.469 0.322 0.656 0.535 0.193 0.213 0.333 0.46 0.421 0.74 0.095 0.28 0.132 0.564 0.113 0.85zM162.146-3.585v0c-0.074 0.589-0.189 1.119-0.343 1.589-0.147 0.472-0.295 0.981-0.445 1.527v0c-0.091 0.345-0.154 0.686-0.19 1.024-0.035 0.332-0.115 0.668-0.238 1.008v0c-0.114 0.261-0.255 0.505-0.425 0.732-0.177 0.233-0.36 0.458-0.55 0.677-0.189 0.218-0.375 0.44-0.558 0.665-0.183 0.225-0.331 0.462-0.442 0.71v0c-0.085 0.198-0.156 0.407-0.211 0.629-0.054 0.215-0.118 0.432-0.193 0.651-0.075 0.219-0.165 0.426-0.27 0.621-0.105 0.195-0.249 0.372-0.43 0.53v0c-0.115 0.113-0.25 0.197-0.405 0.251-0.161 0.054-0.313 0.135-0.454 0.245v0c-0.15 0.122-0.25 0.274-0.3 0.456-0.057 0.181-0.143 0.335-0.26 0.461v0l-0.327-0.042c-0.089 0.069-0.151 0.159-0.185 0.269-0.027 0.111-0.099 0.223-0.214 0.336v0c-0.216 0.168-0.528 0.347-0.935 0.537-0.414 0.19-0.874 0.373-1.38 0.551-0.506 0.178-1.045 0.345-1.616 0.501-0.571 0.156-1.115 0.289-1.632 0.399-0.525 0.115-1.012 0.194-1.462 0.238-0.45 0.051-0.81 0.059-1.082 0.024v0c-0.212-0.027-0.358-0.065-0.438-0.116-0.081-0.051-0.141-0.109-0.18-0.173-0.04-0.059-0.083-0.111-0.131-0.158-0.041-0.046-0.135-0.078-0.28-0.096v0c-0.205-0.026-0.406-0.028-0.605-0.006-0.198 0.022-0.389 0.021-0.574-0.002v0c-0.258-0.033-0.484-0.135-0.677-0.307-0.199-0.18-0.406-0.374-0.621-0.583-0.216-0.202-0.467-0.398-0.752-0.589-0.278-0.19-0.634-0.302-1.067-0.337v0c-0.056-0.088-0.124-0.214-0.204-0.378-0.087-0.166-0.173-0.334-0.258-0.507-0.079-0.171-0.163-0.333-0.251-0.485-0.089-0.146-0.159-0.255-0.211-0.329v0c-0.11-0.142-0.248-0.243-0.415-0.305-0.16-0.061-0.312-0.164-0.454-0.309v0c-0.074-0.056-0.117-0.136-0.132-0.238-0.008-0.095-0.057-0.189-0.145-0.281v0c-0.074-0.056-0.15-0.086-0.231-0.09-0.08-0.003-0.138-0.048-0.175-0.133v0c-0.06-0.055-0.103-0.141-0.128-0.258-0.025-0.117-0.054-0.239-0.085-0.363-0.031-0.125-0.077-0.238-0.139-0.34-0.06-0.108-0.159-0.178-0.296-0.209v0c0.03-0.238-0.008-0.465-0.115-0.68-0.101-0.214-0.177-0.432-0.23-0.654v0c-0.052-0.228-0.074-0.453-0.066-0.674 0-0.215-0.034-0.424-0.102-0.627v0c-0.055-0.202-0.13-0.383-0.224-0.543-0.095-0.153-0.187-0.303-0.276-0.448-0.083-0.138-0.151-0.295-0.203-0.469-0.052-0.175-0.063-0.381-0.032-0.619v0c0.044-0.351 0.121-0.69 0.23-1.019 0.101-0.323 0.174-0.66 0.218-1.011v0c0.046-0.364 0.036-0.738-0.029-1.122-0.06-0.377-0.065-0.764-0.015-1.161v0c0.095-0.747 0.274-1.474 0.538-2.18 0.263-0.699 0.442-1.422 0.537-2.17v0c0.04-0.317 0.039-0.63-0.002-0.938-0.043-0.301-0.044-0.61-0.004-0.928v0c0.028-0.225 0.096-0.441 0.203-0.649 0.108-0.215 0.278-0.388 0.509-0.52v0c0.039-0.042 0.053-0.098 0.042-0.166-0.005-0.068-0.004-0.125 0.001-0.172v0c0.006-0.046 0.041-0.139 0.106-0.279 0.064-0.133 0.136-0.282 0.218-0.446 0.074-0.159 0.145-0.321 0.213-0.487 0.069-0.173 0.119-0.304 0.15-0.394v0c0.033-0.157 0.086-0.281 0.158-0.373 0.065-0.086 0.145-0.16 0.24-0.222 0.095-0.062 0.19-0.124 0.286-0.186 0.088-0.056 0.168-0.137 0.242-0.241v0c0.154-0.209 0.233-0.437 0.238-0.686-0.002-0.249 0.074-0.478 0.228-0.686v0l0.375-0.094c0.145-0.244 0.257-0.408 0.334-0.492 0.072-0.092 0.134-0.154 0.185-0.188 0.058-0.033 0.111-0.053 0.159-0.061 0.049-0.014 0.119-0.062 0.21-0.145v0c0.052-0.04 0.084-0.107 0.095-0.199 0.011-0.086 0.044-0.166 0.101-0.239v0c0.095-0.116 0.237-0.202 0.426-0.259 0.182-0.058 0.331-0.143 0.446-0.256v0c0.109-0.121 0.203-0.25 0.281-0.388 0.072-0.145 0.177-0.26 0.315-0.343v0c0.163-0.12 0.375-0.205 0.637-0.252 0.268-0.047 0.506-0.124 0.715-0.232v0c0.188-0.104 0.351-0.224 0.489-0.362 0.137-0.13 0.317-0.225 0.54-0.284v0c0.112-0.033 0.277-0.066 0.496-0.099 0.213-0.04 0.439-0.069 0.676-0.085 0.237-0.017 0.461-0.029 0.67-0.037 0.209-0.007 0.377-0.003 0.503 0.013v0c0.37 0.047 0.718 0.138 1.043 0.274 0.331 0.143 0.672 0.236 1.023 0.28v0c0.304 0.038 0.595 0.052 0.872 0.04 0.271-0.019 0.542-0.012 0.814 0.022v0c0.688 0.087 1.271 0.231 1.749 0.433 0.486 0.196 0.904 0.427 1.253 0.693 0.344 0.259 0.648 0.536 0.913 0.831 0.259 0.288 0.503 0.564 0.732 0.829 0.222 0.263 0.45 0.507 0.684 0.731 0.227 0.224 0.496 0.385 0.805 0.485v0c0.061 0.317 0.21 0.571 0.448 0.762 0.244 0.192 0.466 0.405 0.665 0.639v0c-0.006 0.261 0.027 0.507 0.098 0.738 0.064 0.237 0.139 0.471 0.224 0.704 0.086 0.226 0.172 0.448 0.258 0.667 0.086 0.226 0.143 0.462 0.173 0.708v0c0.048 0.261 0.05 0.51 0.006 0.746-0.05 0.236-0.049 0.471 0.001 0.706v0c0.051 0.396 0.133 0.783 0.247 1.16 0.114 0.377 0.194 0.754 0.24 1.129v0c0.036 0.246 0.039 0.489 0.009 0.727-0.03 0.238-0.036 0.473-0.019 0.703v0c0.037 0.502 0.07 0.96 0.099 1.374 0.029 0.407 0.012 0.865-0.053 1.374zM157.192-4.504v0c0.028-0.225 0-0.427-0.085-0.606-0.078-0.178-0.144-0.378-0.196-0.599v0c-0.121-0.479-0.152-0.98-0.092-1.503 0.059-0.517 0.045-1.022-0.04-1.517v0c-0.051-0.342-0.191-0.747-0.421-1.213-0.237-0.467-0.51-0.931-0.822-1.394-0.312-0.456-0.641-0.881-0.988-1.274-0.347-0.393-0.67-0.679-0.97-0.859v0l-0.175-0.365c-0.087-0.058-0.203-0.096-0.349-0.114-0.146-0.018-0.278-0.059-0.397-0.121v0c-0.347-0.178-0.681-0.355-1.002-0.53-0.314-0.174-0.679-0.288-1.096-0.34v0c-0.536-0.068-0.966-0.038-1.291 0.088-0.325 0.127-0.609 0.276-0.853 0.447-0.25 0.17-0.488 0.325-0.714 0.464-0.233 0.145-0.514 0.187-0.842 0.125v0c-0.033 0.258-0.113 0.47-0.242 0.635-0.123 0.173-0.267 0.329-0.432 0.469-0.166 0.14-0.328 0.281-0.487 0.423-0.166 0.14-0.292 0.313-0.378 0.516v0c-0.049 0.121-0.115 0.355-0.199 0.701-0.084 0.346-0.169 0.725-0.255 1.137-0.087 0.419-0.161 0.82-0.223 1.201-0.068 0.374-0.113 0.651-0.135 0.83v0c-0.01 0.079-0.037 0.157-0.08 0.232-0.036 0.076-0.076 0.152-0.119 0.227v0c-0.092 0.459-0.174 0.922-0.246 1.39-0.079 0.467-0.148 0.929-0.206 1.385v0c-0.023 0.179-0.033 0.449-0.032 0.812 0.008 0.364 0.023 0.776 0.045 1.236 0.022 0.466 0.047 0.957 0.076 1.471 0.036 0.509 0.076 0.994 0.118 1.456 0.05 0.457 0.098 0.869 0.146 1.238 0.054 0.37 0.111 0.639 0.17 0.808v0c0.057 0.189 0.136 0.336 0.236 0.443 0.093 0.113 0.17 0.253 0.229 0.422v0c0.043 0.086 0.059 0.169 0.049 0.248-0.01 0.079 0.02 0.164 0.089 0.253v0c0.137 0.192 0.315 0.352 0.534 0.481 0.213 0.121 0.416 0.274 0.607 0.46v0c0.243 0.098 0.414 0.204 0.514 0.317 0.099 0.12 0.208 0.241 0.327 0.364 0.126 0.117 0.301 0.226 0.523 0.328 0.216 0.101 0.578 0.184 1.088 0.249v0c0.258 0.033 0.427 0.02 0.508-0.037 0.074-0.051 0.211-0.104 0.414-0.159v0c0.189-0.057 0.369-0.074 0.54-0.053 0.179 0.023 0.334 0.015 0.467-0.021v0c0.307-0.25 0.662-0.477 1.064-0.682 0.41-0.21 0.744-0.467 1.004-0.77v0c0.094-0.102 0.141-0.211 0.142-0.325 0.001-0.114 0.047-0.212 0.138-0.295v0c0.056-0.074 0.132-0.114 0.228-0.122 0.101-0.001 0.179-0.038 0.235-0.112v0c0.265-0.289 0.474-0.639 0.627-1.049 0.159-0.41 0.373-0.773 0.642-1.088v0c0.115-0.167 0.266-0.299 0.453-0.397 0.194-0.096 0.343-0.242 0.449-0.437v0c0.089-0.17 0.16-0.363 0.214-0.577 0.062-0.221 0.111-0.45 0.147-0.687 0.043-0.236 0.083-0.473 0.12-0.711 0.037-0.237 0.085-0.46 0.145-0.667v0c0.055-0.168 0.139-0.352 0.252-0.553 0.114-0.207 0.227-0.411 0.339-0.612 0.114-0.207 0.219-0.406 0.317-0.595 0.098-0.189 0.155-0.347 0.171-0.472zM188.698 1.532v0c-0.112 0.583-0.26 1.104-0.443 1.564-0.177 0.462-0.357 0.96-0.541 1.495v0c-0.112 0.338-0.198 0.675-0.256 1.01-0.056 0.329-0.157 0.659-0.302 0.991v0c-0.13 0.253-0.287 0.488-0.471 0.703-0.192 0.221-0.389 0.434-0.591 0.64-0.202 0.206-0.402 0.415-0.6 0.629-0.197 0.213-0.359 0.44-0.487 0.68v0c-0.098 0.192-0.181 0.396-0.25 0.614-0.068 0.211-0.146 0.423-0.234 0.637-0.089 0.214-0.192 0.415-0.31 0.602-0.118 0.188-0.272 0.355-0.463 0.502v0c-0.122 0.106-0.262 0.18-0.42 0.225-0.164 0.043-0.321 0.115-0.469 0.215v0c-0.157 0.112-0.267 0.258-0.328 0.436-0.068 0.177-0.164 0.325-0.289 0.444v0l-0.324-0.063c-0.094 0.063-0.161 0.149-0.202 0.257-0.034 0.109-0.113 0.216-0.235 0.321v0c-0.226 0.153-0.549 0.312-0.967 0.476-0.425 0.163-0.896 0.317-1.412 0.462-0.517 0.145-1.065 0.277-1.645 0.397-0.58 0.119-1.131 0.217-1.655 0.293-0.532 0.081-1.023 0.129-1.473 0.145-0.452 0.022-0.813 0.007-1.081-0.045v0c-0.209-0.04-0.353-0.088-0.431-0.144-0.078-0.056-0.134-0.117-0.168-0.185-0.036-0.061-0.076-0.116-0.121-0.165-0.038-0.048-0.129-0.086-0.273-0.114v0c-0.203-0.039-0.404-0.054-0.603-0.045-0.199 0.009-0.39-0.004-0.573-0.038v0c-0.255-0.049-0.474-0.166-0.656-0.35-0.187-0.192-0.382-0.399-0.583-0.621-0.203-0.215-0.441-0.427-0.713-0.636-0.266-0.207-0.613-0.342-1.042-0.404v0c-0.05-0.091-0.11-0.221-0.18-0.391-0.076-0.171-0.151-0.345-0.225-0.522-0.068-0.176-0.141-0.343-0.22-0.5-0.08-0.151-0.143-0.265-0.189-0.342v0c-0.101-0.148-0.232-0.258-0.394-0.331-0.156-0.071-0.301-0.183-0.435-0.338v0c-0.07-0.061-0.108-0.143-0.115-0.246-0.002-0.095-0.045-0.192-0.128-0.289v0c-0.07-0.061-0.145-0.096-0.224-0.104-0.08-0.009-0.135-0.057-0.166-0.144v0c-0.057-0.058-0.094-0.147-0.112-0.266-0.018-0.119-0.038-0.242-0.062-0.368-0.023-0.127-0.062-0.243-0.116-0.349-0.053-0.112-0.147-0.188-0.282-0.227v0c0.045-0.236 0.021-0.464-0.072-0.686-0.087-0.22-0.149-0.443-0.188-0.667v0c-0.037-0.231-0.045-0.457-0.022-0.677 0.014-0.215-0.007-0.426-0.062-0.633v0c-0.042-0.205-0.105-0.39-0.189-0.555-0.085-0.159-0.167-0.314-0.246-0.465-0.074-0.143-0.132-0.304-0.173-0.481-0.041-0.178-0.038-0.384 0.007-0.62v0c0.067-0.347 0.165-0.681 0.295-1.002 0.122-0.316 0.216-0.648 0.282-0.995v0c0.069-0.36 0.083-0.734 0.043-1.122-0.036-0.38-0.016-0.767 0.06-1.16v0c0.142-0.74 0.367-1.453 0.676-2.14 0.307-0.681 0.532-1.391 0.674-2.132v0c0.06-0.314 0.08-0.626 0.057-0.936-0.023-0.303-0.005-0.612 0.056-0.926v0c0.043-0.223 0.124-0.434 0.244-0.635 0.121-0.208 0.302-0.37 0.542-0.487v0c0.042-0.04 0.059-0.094 0.052-0.163-0.001-0.068 0.004-0.125 0.012-0.17v0c0.009-0.046 0.05-0.136 0.123-0.272 0.072-0.129 0.154-0.272 0.246-0.431 0.084-0.154 0.165-0.311 0.244-0.473 0.08-0.168 0.138-0.296 0.175-0.384v0c0.043-0.155 0.104-0.275 0.182-0.362 0.07-0.082 0.154-0.15 0.253-0.206 0.099-0.056 0.198-0.111 0.297-0.167 0.091-0.05 0.177-0.126 0.257-0.225v0c0.167-0.199 0.261-0.422 0.281-0.669 0.014-0.249 0.104-0.472 0.272-0.671v0l0.38-0.07c0.16-0.234 0.282-0.39 0.365-0.469 0.078-0.087 0.143-0.146 0.197-0.176 0.06-0.029 0.114-0.046 0.162-0.051 0.05-0.011 0.122-0.055 0.219-0.131v0c0.055-0.037 0.091-0.101 0.108-0.193 0.016-0.085 0.055-0.163 0.116-0.232v0c0.102-0.109 0.25-0.186 0.441-0.231 0.185-0.046 0.339-0.122 0.462-0.227v0c0.117-0.113 0.219-0.236 0.305-0.369 0.081-0.141 0.194-0.248 0.337-0.322v0c0.17-0.11 0.388-0.18 0.651-0.211 0.27-0.03 0.513-0.092 0.728-0.186v0c0.194-0.092 0.365-0.202 0.512-0.33 0.146-0.121 0.331-0.205 0.557-0.249v0c0.114-0.026 0.281-0.048 0.501-0.067 0.216-0.026 0.442-0.041 0.68-0.042 0.238-0.002 0.462 0 0.671 0.007 0.209 0.006 0.376 0.021 0.501 0.045v0c0.367 0.07 0.708 0.184 1.024 0.339 0.322 0.164 0.656 0.279 1.003 0.345v0c0.301 0.058 0.59 0.09 0.867 0.096 0.272-0.002 0.542 0.023 0.811 0.074v0c0.681 0.131 1.254 0.312 1.718 0.544 0.472 0.227 0.874 0.484 1.206 0.771 0.326 0.28 0.612 0.576 0.858 0.888 0.24 0.304 0.466 0.595 0.678 0.874 0.205 0.277 0.417 0.535 0.635 0.773 0.212 0.238 0.47 0.416 0.773 0.536v0c0.04 0.32 0.173 0.583 0.398 0.789 0.232 0.207 0.439 0.434 0.623 0.68v0c-0.023 0.26-0.006 0.508 0.051 0.743 0.049 0.24 0.108 0.479 0.178 0.716 0.071 0.231 0.143 0.458 0.215 0.683 0.071 0.231 0.113 0.47 0.127 0.717v0c0.031 0.264 0.017 0.512-0.041 0.745-0.065 0.232-0.079 0.467-0.044 0.705v0c0.025 0.399 0.083 0.79 0.172 1.173 0.089 0.384 0.145 0.764 0.167 1.142v0c0.02 0.248 0.008 0.49-0.037 0.726-0.045 0.236-0.066 0.469-0.064 0.701v0c0.005 0.503 0.009 0.962 0.011 1.377 0.003 0.408-0.044 0.864-0.141 1.368zM183.813 0.298v0c0.043-0.223 0.027-0.426-0.045-0.61-0.067-0.183-0.119-0.386-0.158-0.61v0c-0.09-0.486-0.089-0.988 0.004-1.507 0.092-0.512 0.111-1.017 0.057-1.516v0c-0.029-0.345-0.143-0.757-0.343-1.237-0.206-0.481-0.45-0.962-0.73-1.444-0.282-0.475-0.584-0.92-0.905-1.334-0.321-0.415-0.625-0.721-0.913-0.919v0l-0.152-0.375c-0.083-0.063-0.196-0.109-0.34-0.137-0.144-0.028-0.274-0.076-0.39-0.146v0c-0.335-0.2-0.657-0.398-0.965-0.593-0.302-0.194-0.66-0.33-1.072-0.409v0c-0.53-0.102-0.962-0.1-1.295 0.006-0.333 0.106-0.626 0.236-0.879 0.391-0.26 0.154-0.508 0.293-0.742 0.417-0.242 0.13-0.525 0.154-0.849 0.071v0c-0.049 0.255-0.143 0.461-0.281 0.618-0.133 0.164-0.287 0.311-0.462 0.441-0.174 0.129-0.345 0.26-0.513 0.39-0.174 0.129-0.311 0.293-0.41 0.492v0c-0.057 0.118-0.138 0.347-0.244 0.686-0.106 0.339-0.215 0.712-0.327 1.119-0.113 0.413-0.213 0.808-0.298 1.185-0.091 0.369-0.154 0.642-0.188 0.819v0c-0.015 0.079-0.047 0.154-0.095 0.226-0.041 0.074-0.086 0.146-0.133 0.219v0c-0.121 0.452-0.232 0.909-0.335 1.371-0.109 0.461-0.207 0.917-0.294 1.369v0c-0.034 0.177-0.062 0.446-0.084 0.809-0.016 0.364-0.027 0.776-0.033 1.236-0.008 0.467-0.014 0.958-0.019 1.473 0.004 0.51 0.012 0.997 0.025 1.461 0.02 0.459 0.043 0.874 0.067 1.245 0.03 0.372 0.07 0.645 0.118 0.817v0c0.045 0.192 0.114 0.344 0.207 0.457 0.086 0.118 0.153 0.264 0.201 0.436v0c0.037 0.089 0.048 0.172 0.034 0.251-0.015 0.079 0.009 0.165 0.072 0.258v0c0.124 0.2 0.292 0.372 0.502 0.514 0.205 0.134 0.397 0.3 0.577 0.498v0c0.236 0.113 0.401 0.23 0.493 0.349 0.091 0.126 0.192 0.254 0.303 0.384 0.119 0.125 0.286 0.245 0.501 0.361 0.209 0.115 0.565 0.221 1.069 0.317v0c0.255 0.049 0.425 0.048 0.51-0.004 0.077-0.046 0.218-0.091 0.423-0.132v0c0.192-0.045 0.373-0.051 0.543-0.018 0.177 0.034 0.332 0.037 0.466 0.008v0c0.323-0.23 0.691-0.434 1.106-0.612 0.422-0.184 0.773-0.418 1.052-0.705v0c0.1-0.096 0.154-0.201 0.162-0.315 0.008-0.114 0.061-0.209 0.157-0.285v0c0.061-0.07 0.139-0.106 0.234-0.108 0.101 0.006 0.182-0.026 0.243-0.096v0c0.283-0.272 0.514-0.607 0.692-1.007 0.185-0.399 0.422-0.747 0.71-1.045v0c0.126-0.159 0.285-0.281 0.478-0.367 0.199-0.084 0.358-0.22 0.475-0.407v0c0.099-0.164 0.183-0.352 0.251-0.563 0.075-0.216 0.139-0.442 0.191-0.676 0.058-0.233 0.113-0.467 0.165-0.702 0.052-0.234 0.114-0.453 0.187-0.656v0c0.065-0.164 0.161-0.342 0.286-0.536 0.127-0.2 0.253-0.396 0.378-0.589 0.127-0.2 0.245-0.391 0.355-0.574 0.11-0.183 0.177-0.336 0.2-0.46z" opacity="1" transform="matrix(1,0,0,1,0,0)" fill="#ffffff" class="wordmark-text-0" data-fill-palette-color="primary" id="text-0"></path></svg></g></svg></g></svg></g></svg></g><g></g></svg></g><defs></defs></svg><rect width="395.52" height="91.17791831700283" fill="none" stroke="none" visibility="hidden"></rect></g></svg></g></svg>