<svg xmlns="http://www.w3.org/2000/svg" version="1.1" xmlns:xlink="http://www.w3.org/1999/xlink" xmlns:svgjs="http://svgjs.dev/svgjs" width="2000" height="323" viewBox="0 0 2000 323"><g transform="matrix(1,0,0,1,-1.2121212121212466,-0.056998000396134785)"><svg viewBox="0 0 396 64" data-background-color="#0f6b42" preserveAspectRatio="xMidYMid meet" height="323" width="2000" xmlns="http://www.w3.org/2000/svg" xmlns:xlink="http://www.w3.org/1999/xlink"><g id="tight-bounds" transform="matrix(1,0,0,1,0.2400000000000091,0.011293721440722493)"><svg viewBox="0 0 395.52 63.977412557118555" height="63.977412557118555" width="395.52"><g><svg viewBox="0 0 467.4246776580061 75.60836731873081" height="63.977412557118555" width="395.52"><g transform="matrix(1,0,0,1,71.90467765800612,0.3320035160696051)"><svg viewBox="0 0 395.52 74.9443602865916" height="74.9443602865916" width="395.52"><g id="textblocktransform"><svg viewBox="0 0 395.52 74.9443602865916" height="74.9443602865916" width="395.52" id="textblock"><g><svg viewBox="0 0 395.52 74.9443602865916" height="74.9443602865916" width="395.52"><g transform="matrix(1,0,0,1,0,0)"><svg width="395.52" viewBox="2.76 -31.81 190.8 36.16" height="74.9443602865916" data-palette-color="#d0d823"><path d="M35.55-12.6L35.55-12.6Q35.55-12.18 35.46-11.82 35.38-11.45 35.11-11.11L35.11-11.11 35.11-10.55Q35.11-9.64 34.81-8.73 34.52-7.81 33.96-7.1L33.96-7.1Q34.01-6.88 34.01-6.67 34.01-6.45 34.01-6.25L34.01-6.25Q34.01-5.35 33.84-4.83 33.67-4.32 33.42-3.99 33.18-3.66 32.92-3.41 32.67-3.15 32.5-2.76L32.5-2.76Q32.2-2.05 32.17-1.23 32.13-0.42 32.01 0.34L32.01 0.34Q31.59 0.88 31.24 1.46 30.88 2.05 30.48 2.6 30.08 3.15 29.59 3.6 29.1 4.05 28.44 4.35L28.44 4.35Q28.17 4.25 27.87 4.22 27.56 4.2 27.23 4.17 26.9 4.15 26.6 4.09 26.29 4.03 26.05 3.86L26.05 3.86Q25.68 3.22 25.44 2.51 25.2 1.81 25.2 1.05L25.2 1.05Q25.2 0.83 25.27 0.48 25.34 0.12 25.45-0.26 25.56-0.63 25.68-0.96 25.81-1.29 25.9-1.44L25.9-1.44Q25.98-1.56 26.06-1.57 26.15-1.59 26.2-1.76L26.2-1.76Q26.27-1.93 26.29-2.19 26.32-2.44 26.32-2.71 26.32-2.98 26.32-3.23 26.32-3.49 26.34-3.71L26.34-3.71Q26.56-3.93 26.89-4.38 27.22-4.83 27.53-5.35 27.83-5.86 28.09-6.34 28.34-6.81 28.44-7.1L28.44-7.1Q28.54-7.35 28.58-7.64 28.61-7.93 28.65-8.2 28.69-8.47 28.78-8.73 28.88-8.98 29.1-9.2L29.1-9.2 29.1-10.64Q29.17-10.67 29.28-10.89 29.39-11.11 29.53-11.43 29.66-11.74 29.79-12.13 29.91-12.52 30.02-12.87 30.13-13.21 30.19-13.48 30.25-13.75 30.25-13.84L30.25-13.84Q30.25-14.16 30.18-14.43 30.1-14.7 30.1-14.99L30.1-14.99Q30.1-15.26 30.25-15.47 30.4-15.67 30.4-15.94L30.4-15.94Q30.4-16.04 30.35-16.47 30.3-16.89 30.25-17.38 30.2-17.87 30.15-18.26 30.1-18.65 30.1-18.7L30.1-18.7Q29.93-19.14 29.54-19.49 29.15-19.85 28.66-20.1 28.17-20.36 27.66-20.51 27.15-20.65 26.71-20.65L26.71-20.65Q26.39-20.65 26.14-20.48 25.88-20.31 25.66-20.06 25.44-19.8 25.26-19.51 25.07-19.21 24.9-18.99L24.9-18.99 24.9-18.7 24.61-18.7Q24.29-18.33 24.11-17.97 23.93-17.6 23.8-17.27 23.68-16.94 23.57-16.64 23.46-16.33 23.29-16.09L23.29-16.09Q23.17-15.94 22.91-15.8 22.66-15.65 22.51-15.5L22.51-15.5 22.51-15.16Q22.34-15.04 22.17-15.01 22-14.99 21.85-14.84L21.85-14.84 21.56-14.21Q21.17-13.5 20.68-12.83 20.19-12.16 19.9-11.45L19.9-11.45Q19.82-11.25 19.85-11.05 19.87-10.84 19.75-10.64L19.75-10.64Q19.68-10.45 19.57-10.36 19.46-10.28 19.46-10.06L19.46-10.06Q19.46-9.81 19.53-9.62 19.6-9.42 19.6-9.2L19.6-9.2Q19.6-8.28 19.53-7.32 19.46-6.37 19.46-5.44L19.46-5.44Q19.46-5.03 19.53-4.63 19.6-4.22 19.6-3.86L19.6-3.86Q19.46-3.56 19.46-3.2L19.46-3.2Q19.46-2.71 19.6-2.2 19.75-1.68 19.75-1.15L19.75-1.15Q19.75-0.83 19.65-0.52 19.56-0.22 19.46 0.07 19.36 0.37 19.27 0.67 19.19 0.98 19.24 1.29L19.24 1.29Q18.65 1.9 18.09 2.28 17.53 2.66 16.6 2.66L16.6 2.66Q16.41 2.66 16.25 2.62 16.09 2.59 15.89 2.59L15.89 2.59Q15.5 2.32 15.32 1.99 15.14 1.66 15.05 1.31 14.97 0.95 14.92 0.59 14.87 0.22 14.75-0.15L14.75-0.15Q14.7-0.24 14.62-0.32 14.55-0.39 14.47-0.48 14.38-0.56 14.32-0.71 14.26-0.85 14.26-1.15L14.26-1.15Q14.26-1.54 14.36-1.88 14.45-2.22 14.45-2.59L14.45-2.59Q14.45-2.86 14.38-3.13 14.31-3.39 14.31-3.71L14.31-3.71Q14.31-3.93 14.38-4.15 14.45-4.37 14.45-4.59L14.45-4.59Q14.45-4.98 14.28-5.35 14.11-5.71 14.11-6.1L14.11-6.1Q14.11-6.47 14.25-6.76 14.38-7.06 14.45-7.4L14.45-7.4Q14.31-7.54 14.31-7.74L14.31-7.74Q14.31-7.93 14.38-8.13 14.45-8.33 14.45-8.54L14.45-8.54Q14.45-9.08 14.28-9.61 14.11-10.13 14.11-10.69L14.11-10.69Q14.11-11.16 14.21-11.62 14.31-12.08 14.31-12.55L14.31-12.55Q14.26-13.23 14.26-13.9 14.26-14.58 14.26-15.26L14.26-15.26Q14.26-15.97 14.26-16.65 14.26-17.33 14.31-18.04L14.31-18.04Q14.31-18.31 14.38-18.57 14.45-18.82 14.45-19.09L14.45-19.09Q14.45-19.29 14.34-19.41 14.23-19.53 14.11-19.65L14.11-19.65Q13.99-20.07 14.03-20.5 14.06-20.92 13.79-21.29L13.79-21.29 13.6-21.29Q13.45-21.29 13.45-21.03 13.45-20.78 13.45-20.65L13.45-20.65Q13.33-20.41 13.16-20.21 12.99-20.02 12.83-19.82 12.67-19.63 12.52-19.4 12.38-19.17 12.35-18.85L12.35-18.85Q12.06-18.82 11.88-18.66 11.69-18.51 11.57-18.29 11.45-18.07 11.34-17.82 11.23-17.58 11.06-17.41L11.06-17.41Q10.94-17.29 10.8-17.25 10.67-17.21 10.55-17.09L10.55-17.09Q10.18-16.65 9.89-16.11 9.59-15.58 9.11-15.16L9.11-15.16Q9.11-14.77 8.96-14.42 8.81-14.06 8.62-13.71 8.42-13.35 8.24-13 8.06-12.65 8.01-12.26L8.01-12.26Q7.84-11.47 7.92-10.63 8.01-9.79 8.01-9.01L8.01-9.01 8.01-3.59Q8.01-2.83 7.93-2.1 7.86-1.37 7.86-0.66L7.86-0.66Q7.86-0.2 7.93 0.22 8.01 0.63 8.01 1.1L8.01 1.1Q8.01 1.51 7.86 1.95L7.86 1.95Q7.45 2.37 6.75 2.48 6.05 2.59 5.49 2.59L5.49 2.59Q4.59 2.59 4.25 2.42 3.91 2.25 3.76 2.01 3.61 1.78 3.52 1.54 3.42 1.29 3 1.15L3 1.15Q3 1.07 3.03 0.98 3.05 0.88 3.05 0.81L3.05 0.81Q3.05 0.49 2.95 0.22 2.86-0.05 2.86-0.34L2.86-0.34Q2.86-0.81 3-1.17 3.15-1.54 3.15-2L3.15-2Q3.15-2.76 3-3.5 2.86-4.25 2.86-5L2.86-5Q2.86-5.37 3-5.7 3.15-6.03 3.15-6.4L3.15-6.4Q3.15-6.62 3.08-6.82 3-7.03 3-7.25L3-7.25Q3-7.47 3.08-7.69 3.15-7.91 3.15-8.11L3.15-8.11Q3.15-8.54 3.03-8.95 2.91-9.35 2.91-9.79L2.91-9.79Q2.91-10.18 2.98-10.55 3.05-10.91 3.05-11.3L3.05-11.3Q3.05-12.21 2.93-13.07 2.81-13.94 2.86-14.84L2.86-14.84Q2.91-16.67 2.83-18.46 2.76-20.24 2.76-22.05L2.76-22.05Q2.76-23.12 2.81-24.18 2.86-25.24 3-26.29L3-26.29Q3.59-26.83 3.88-27.12 4.17-27.42 4.47-27.55 4.76-27.69 5.19-27.71 5.62-27.73 6.49-27.76L6.49-27.76 6.86-27.76Q7.01-27.47 7.2-27.19 7.4-26.9 7.58-26.61 7.76-26.32 7.89-26.01 8.01-25.71 8.01-25.34L8.01-25.34Q8.01-24.9 7.93-24.45 7.86-24 7.86-23.56L7.86-23.56Q7.86-23.07 7.9-22.56 7.93-22.05 8.15-21.61L8.15-21.61 8.25-21.61Q8.35-21.61 8.67-22 8.98-22.39 9.31-22.9 9.64-23.41 9.92-23.89 10.21-24.37 10.25-24.51L10.25-24.51Q10.4-24.68 10.67-24.83 10.94-24.98 11.24-25.13 11.55-25.29 11.84-25.45 12.13-25.61 12.35-25.81L12.35-25.81Q12.48-25.93 12.56-26.05 12.65-26.17 12.79-26.29L12.79-26.29Q12.96-26.37 13.15-26.38 13.33-26.39 13.5-26.42 13.67-26.44 13.83-26.51 13.99-26.59 14.11-26.76L14.11-26.76Q14.62-26.73 15.15-26.73 15.67-26.73 16.19-26.66 16.7-26.59 17.16-26.39 17.63-26.2 17.99-25.81L17.99-25.81Q18.21-25.59 18.33-25.29 18.46-25 18.55-24.69 18.65-24.39 18.77-24.1 18.9-23.8 19.09-23.56L19.09-23.56 19.09-22.95Q19.09-22.34 19.24-21.78 19.38-21.22 19.46-20.65L19.46-20.65Q19.68-20.68 19.81-20.8 19.95-20.92 20.03-21.09 20.12-21.26 20.2-21.45 20.29-21.63 20.41-21.75L20.41-21.75Q20.95-22.44 21.58-22.96 22.22-23.49 22.89-23.95 23.56-24.41 24.28-24.82 25-25.22 25.71-25.66L25.71-25.66Q26.07-25.85 26.55-25.96 27.03-26.07 27.54-26.11 28.05-26.15 28.54-26.15 29.03-26.15 29.44-26.15L29.44-26.15Q29.81-26.15 30.03-26.07 30.25-26 30.42-25.89 30.59-25.78 30.76-25.62 30.93-25.46 31.2-25.29L31.2-25.29Q31.86-24.88 32.25-24.62 32.64-24.37 32.96-24.13 33.28-23.9 33.64-23.58 34.01-23.27 34.59-22.75L34.59-22.75Q34.59-22.56 34.57-22.38 34.55-22.19 34.55-22L34.55-22Q34.55-21.8 34.61-21.67 34.67-21.53 34.73-21.39 34.79-21.24 34.85-21.01 34.91-20.78 34.91-20.36L34.91-20.36Q34.91-20.21 34.95-20.13 34.99-20.04 35.05-19.98 35.11-19.92 35.16-19.85 35.21-19.78 35.25-19.65L35.25-19.65 35.55-16.6Q35.55-16.26 35.4-15.95 35.25-15.65 35.25-15.31L35.25-15.31Q35.25-14.62 35.4-13.95 35.55-13.28 35.55-12.6ZM63.64-14.75L63.64-14.75Q63.64-13.84 63.51-13.1 63.38-12.35 63.25-11.5L63.25-11.5Q63.18-10.96 63.19-10.45 63.21-9.94 63.08-9.4L63.08-9.4Q62.96-8.98 62.74-8.61 62.52-8.23 62.28-7.86 62.03-7.5 61.8-7.12 61.57-6.74 61.45-6.35L61.45-6.35Q61.35-6.03 61.31-5.69 61.28-5.35 61.2-5 61.13-4.66 61.01-4.35 60.89-4.03 60.64-3.76L60.64-3.76Q60.5-3.56 60.26-3.45 60.03-3.34 59.84-3.15L59.84-3.15Q59.64-2.93 59.59-2.65 59.54-2.37 59.4-2.15L59.4-2.15 59.06-2.15Q58.93-2.03 58.91-1.86 58.88-1.68 58.74-1.49L58.74-1.49Q58.44-1.2 57.86-0.83 57.27-0.46 56.54-0.1 55.81 0.27 54.98 0.61 54.15 0.95 53.38 1.22 52.61 1.49 51.94 1.65 51.27 1.81 50.85 1.81L50.85 1.81Q50.53 1.81 50.4 1.75 50.27 1.68 50.19 1.6 50.12 1.51 50.05 1.45 49.97 1.39 49.75 1.39L49.75 1.39Q49.44 1.39 49.14 1.46 48.85 1.54 48.56 1.54L48.56 1.54Q48.17 1.54 47.84 1.31 47.51 1.07 47.14 0.81 46.77 0.54 46.31 0.31 45.85 0.07 45.19 0.1L45.19 0.1Q45.09-0.02 44.93-0.26 44.77-0.49 44.61-0.73 44.46-0.98 44.3-1.18 44.14-1.39 44.04-1.49L44.04-1.49Q43.85-1.68 43.59-1.75 43.33-1.81 43.09-2L43.09-2Q42.97-2.08 42.93-2.22 42.89-2.37 42.75-2.49L42.75-2.49Q42.62-2.56 42.5-2.55 42.38-2.54 42.31-2.66L42.31-2.66Q42.21-2.73 42.15-2.91 42.09-3.08 42.01-3.26 41.94-3.44 41.83-3.59 41.72-3.74 41.5-3.76L41.5-3.76Q41.5-4.13 41.31-4.43 41.11-4.74 40.99-5.05L40.99-5.05Q40.87-5.4 40.83-5.73 40.79-6.05 40.65-6.35L40.65-6.35Q40.52-6.64 40.35-6.86 40.18-7.08 40.02-7.28 39.87-7.47 39.76-7.73 39.65-7.98 39.65-8.35L39.65-8.35Q39.65-8.89 39.74-9.4 39.84-9.91 39.84-10.45L39.84-10.45Q39.84-11.01 39.67-11.57 39.5-12.13 39.5-12.74L39.5-12.74Q39.5-13.89 39.77-15 40.04-16.11 40.04-17.26L40.04-17.26Q40.04-17.75 39.91-18.2 39.79-18.65 39.79-19.14L39.79-19.14Q39.79-19.48 39.91-19.82 40.04-20.17 40.35-20.41L40.35-20.41Q40.4-20.48 40.38-20.58 40.35-20.68 40.35-20.75L40.35-20.75Q40.35-20.83 40.43-21.04 40.5-21.26 40.59-21.52 40.67-21.78 40.74-22.05 40.82-22.31 40.84-22.46L40.84-22.46Q40.87-22.71 40.95-22.85 41.04-23 41.17-23.11 41.31-23.22 41.43-23.33 41.55-23.44 41.65-23.61L41.65-23.61Q41.84-23.95 41.79-24.33 41.75-24.71 41.94-25.05L41.94-25.05 42.31-25.2Q42.48-25.59 42.58-25.73 42.67-25.88 42.75-25.94 42.82-26 42.89-26.03 42.97-26.05 43.09-26.2L43.09-26.2Q43.16-26.27 43.16-26.4 43.16-26.54 43.23-26.66L43.23-26.66Q43.36-26.86 43.63-26.98 43.89-27.1 44.04-27.29L44.04-27.29Q44.19-27.49 44.27-27.72 44.36-27.95 44.55-28.1L44.55-28.1Q44.77-28.32 45.16-28.44 45.55-28.56 45.85-28.76L45.85-28.76Q46.12-28.96 46.3-29.19 46.48-29.42 46.8-29.54L46.8-29.54Q46.97-29.61 47.29-29.71 47.6-29.81 47.96-29.88 48.31-29.96 48.63-30 48.95-30.05 49.14-30.05L49.14-30.05Q49.7-30.05 50.23-29.91 50.75-29.76 51.29-29.76L51.29-29.76Q51.76-29.76 52.17-29.83 52.59-29.91 53-29.91L53-29.91Q54.05-29.91 54.82-29.7 55.59-29.49 56.16-29.16 56.74-28.83 57.19-28.44 57.64-28.05 58.03-27.7 58.42-27.34 58.81-27.05 59.2-26.76 59.69-26.66L59.69-26.66Q59.84-26.2 60.24-25.95 60.64-25.71 60.98-25.39L60.98-25.39Q61.03-25 61.18-24.66 61.33-24.32 61.5-23.99 61.67-23.66 61.84-23.34 62.01-23.02 62.11-22.66L62.11-22.66Q62.23-22.27 62.2-21.9 62.18-21.53 62.3-21.19L62.3-21.19Q62.45-20.61 62.69-20.06 62.94-19.51 63.08-18.95L63.08-18.95Q63.18-18.58 63.18-18.21 63.18-17.85 63.25-17.5L63.25-17.5Q63.4-16.75 63.52-16.14 63.64-15.53 63.64-14.75ZM58.54-15.04L58.54-15.04Q58.54-15.38 58.38-15.64 58.23-15.89 58.1-16.21L58.1-16.21Q57.83-16.92 57.82-17.71 57.81-18.51 57.59-19.24L57.59-19.24Q57.44-19.75 57-20.41 56.56-21.07 56-21.7 55.44-22.34 54.84-22.86 54.25-23.39 53.76-23.61L53.76-23.61 53.54-23.95Q53.39-24.02 53.17-24.02 52.95-24.02 52.76-24.1L52.76-24.1Q52.19-24.29 51.68-24.5 51.17-24.71 50.53-24.71L50.53-24.71Q49.7-24.71 49.24-24.45 48.78-24.19 48.44-23.89 48.09-23.58 47.78-23.33 47.46-23.07 46.95-23.1L46.95-23.1Q46.95-22.71 46.79-22.42 46.63-22.14 46.41-21.9 46.19-21.66 45.97-21.41 45.75-21.17 45.65-20.85L45.65-20.85Q45.6-20.65 45.54-20.12 45.48-19.58 45.43-18.93 45.38-18.29 45.36-17.7 45.33-17.11 45.33-16.85L45.33-16.85Q45.33-16.72 45.29-16.6 45.24-16.48 45.19-16.36L45.19-16.36Q45.14-15.65 45.11-14.93 45.09-14.21 45.09-13.5L45.09-13.5Q45.09-13.23 45.16-12.68 45.24-12.13 45.36-11.44 45.48-10.74 45.63-9.97 45.77-9.2 45.93-8.52 46.09-7.84 46.24-7.29 46.38-6.74 46.51-6.49L46.51-6.49Q46.63-6.23 46.8-6.08 46.97-5.93 47.09-5.69L47.09-5.69Q47.17-5.57 47.17-5.44 47.17-5.32 47.29-5.2L47.29-5.2Q47.53-4.93 47.89-4.79 48.24-4.64 48.56-4.39L48.56-4.39Q48.95-4.3 49.12-4.14 49.29-3.98 49.5-3.82 49.7-3.66 50.06-3.55 50.41-3.44 51.19-3.44L51.19-3.44Q51.58-3.44 51.69-3.54 51.8-3.64 52.1-3.76L52.1-3.76Q52.37-3.88 52.63-3.88 52.9-3.88 53.1-3.96L53.1-3.96Q53.51-4.39 54.09-4.79 54.66-5.18 55-5.69L55-5.69Q55.12-5.86 55.1-6.03 55.08-6.2 55.2-6.35L55.2-6.35Q55.27-6.47 55.42-6.49 55.56-6.52 55.64-6.64L55.64-6.64Q55.98-7.13 56.14-7.78 56.3-8.42 56.64-8.96L56.64-8.96Q56.78-9.23 57.05-9.41 57.32-9.59 57.44-9.91L57.44-9.91Q57.54-10.18 57.59-10.52 57.64-10.86 57.65-11.23 57.66-11.6 57.68-11.96 57.69-12.33 57.74-12.65L57.74-12.65Q57.79-12.92 57.92-13.24 58.05-13.57 58.19-13.9 58.32-14.23 58.43-14.54 58.54-14.84 58.54-15.04ZM89.74-28.05L89.74-28.05Q89.74-26.22 89.33-24.34L89.33-24.34Q89.25-23.78 89.07-23.23 88.89-22.68 88.89-22.14L88.89-22.14Q88.89-21.88 88.96-21.62 89.03-21.36 89.03-21.09L89.03-21.09Q89.03-20.8 88.96-20.5 88.89-20.19 88.81-19.9 88.74-19.6 88.69-19.3 88.64-18.99 88.69-18.7L88.69-18.7Q88.33-18.36 88.15-17.88 87.98-17.41 87.86-16.88 87.74-16.36 87.58-15.86 87.42-15.36 87.08-14.99L87.08-14.99Q87.03-13.6 86.63-12.22 86.23-10.84 85.13-9.84L85.13-9.84Q85.18-9.72 85.2-9.62 85.22-9.52 85.22-9.45L85.22-9.45Q85.22-9.08 85.07-8.74 84.91-8.4 84.83-8.06L84.83-8.06Q84.71-7.59 84.7-7.15 84.69-6.71 84.54-6.3L84.54-6.3Q84.42-6.01 84.24-5.77 84.05-5.54 83.86-5.32 83.66-5.1 83.49-4.87 83.32-4.64 83.22-4.35L83.22-4.35Q83.12-4.1 83.1-3.82 83.08-3.54 83.05-3.26 83.03-2.98 83-2.72 82.98-2.47 82.88-2.25L82.88-2.25Q82.81-2.03 82.58-1.93 82.34-1.83 82.22-1.61L82.22-1.61Q82.03-1.25 81.86-0.81 81.68-0.37 81.48 0.07 81.27 0.51 81.03 0.92 80.78 1.32 80.49 1.61L80.49 1.61Q79.88 1.81 79.21 1.88 78.54 1.95 77.92 1.95L77.92 1.95Q77.34 1.95 77.09 1.92 76.85 1.88 76.74 1.79 76.63 1.71 76.55 1.59 76.46 1.46 76.14 1.29L76.14 1.29Q75.97 1.22 75.8 1.22 75.63 1.22 75.48 1.15L75.48 1.15Q75.29 1 75.14 0.61 75 0.22 74.82 0L74.82 0Q74.68-0.27 74.51-0.56 74.34-0.85 74.19-1.15L74.19-1.15Q73.97-1.59 73.81-2.17 73.65-2.76 73.44-3.33 73.24-3.91 72.92-4.36 72.6-4.81 72.09-5L72.09-5Q72.09-5.35 71.96-5.63 71.82-5.91 71.64-6.16 71.45-6.42 71.27-6.69 71.09-6.96 70.99-7.25L70.99-7.25Q70.82-7.62 70.86-8.04 70.89-8.47 70.77-8.84L70.77-8.84Q70.7-9.2 70.59-9.47 70.48-9.74 70.37-9.95 70.26-10.16 70.16-10.35 70.06-10.55 69.99-10.79L69.99-10.79Q69.84-11.25 69.79-11.76 69.75-12.26 69.64-12.74 69.53-13.23 69.29-13.65 69.06-14.06 68.53-14.36L68.53-14.36Q68.57-14.45 68.57-14.7L68.57-14.7Q68.57-14.97 68.49-15.2 68.4-15.43 68.29-15.66 68.18-15.89 68.06-16.13 67.94-16.36 67.89-16.6L67.89-16.6Q67.77-17.19 67.74-17.81 67.72-18.43 67.65-19.04 67.57-19.65 67.4-20.23 67.23-20.8 66.79-21.29L66.79-21.29Q66.89-21.53 66.89-21.7L66.89-21.7Q66.89-22 66.79-22.25 66.69-22.51 66.58-22.75 66.47-23 66.38-23.25 66.28-23.51 66.28-23.8L66.28-23.8Q66.28-24.34 66.33-24.89 66.38-25.44 66.38-26L66.38-26Q66.38-26.32 66.61-26.68 66.84-27.05 67.18-27.37 67.52-27.69 67.9-27.89 68.28-28.1 68.57-28.1L68.57-28.1Q68.87-28.1 69.15-28 69.43-27.91 69.7-27.78 69.97-27.66 70.23-27.54 70.5-27.42 70.77-27.39L70.77-27.39Q70.84-27.05 71.03-26.76 71.21-26.46 71.41-26.18 71.6-25.9 71.8-25.61 71.99-25.32 72.09-25L72.09-25Q72.21-24.63 72.19-24.21 72.16-23.78 72.24-23.39L72.24-23.39Q72.36-22.97 72.55-22.66 72.75-22.34 72.87-21.95L72.87-21.95Q72.94-21.85 72.94-21.7L72.94-21.7Q72.94-21.48 72.83-21.28 72.72-21.07 72.72-20.85L72.72-20.85Q72.72-20.68 72.83-20.4 72.94-20.12 73.08-19.8 73.21-19.48 73.35-19.18 73.48-18.87 73.53-18.7L73.53-18.7Q73.75-18.12 73.87-17.35 73.99-16.58 74.12-15.8 74.24-15.01 74.4-14.29 74.56-13.57 74.82-13.06L74.82-13.06Q74.95-12.87 75.15-12.74 75.36-12.62 75.48-12.4L75.48-12.4Q75.65-12.04 75.79-11.6 75.92-11.16 76.07-10.73 76.22-10.3 76.41-9.9 76.61-9.5 76.92-9.2L76.92-9.2Q77-8.59 77.16-8.11 77.31-7.62 77.51-7.17 77.7-6.71 77.94-6.26 78.17-5.81 78.39-5.3L78.39-5.3Q78.61-5.35 78.84-5.54 79.07-5.74 79.26-5.99 79.44-6.25 79.56-6.53 79.68-6.81 79.68-7.06L79.68-7.06Q79.68-7.32 79.58-7.58 79.49-7.84 79.49-8.11L79.49-8.11Q79.49-8.45 79.74-8.83 80-9.2 80.12-9.5L80.12-9.5Q80.44-10.25 80.57-11.02 80.71-11.79 80.98-12.55L80.98-12.55Q81.05-12.82 81.22-13.05 81.39-13.28 81.39-13.55L81.39-13.55Q81.39-13.75 81.29-13.84L81.29-13.84Q81.42-14.04 81.67-14.83 81.93-15.63 82.17-16.56 82.42-17.5 82.6-18.33 82.78-19.17 82.78-19.41L82.78-19.41Q82.78-19.7 82.72-20.02 82.66-20.34 82.59-20.65L82.59-20.65Q82.76-20.75 82.86-21 82.95-21.24 83.04-21.52 83.12-21.8 83.2-22.08 83.27-22.36 83.39-22.56L83.39-22.56Q83.59-22.92 83.71-23.41 83.83-23.9 83.91-24.41 83.98-24.93 84-25.44 84.03-25.95 84.03-26.34L84.03-26.34Q84.03-26.83 83.93-27.28 83.83-27.73 83.83-28.2L83.83-28.2Q83.83-28.69 83.94-28.94 84.05-29.2 84.21-29.36 84.37-29.52 84.54-29.69 84.71-29.86 84.83-30.15L84.83-30.15Q85.13-30.86 85.55-31.34 85.98-31.81 86.84-31.81L86.84-31.81Q87.67-31.81 88.23-31.49 88.79-31.18 89.13-30.65 89.47-30.13 89.61-29.44 89.74-28.76 89.74-28.05ZM114.74-6.45L114.74-6.45 114.74-6.25Q114.76-5.57 114.53-5.13 114.3-4.69 113.93-4.37 113.57-4.05 113.1-3.78 112.64-3.52 112.18-3.2L112.18-3.2 112.18-3Q112.18-2.59 112.04-2.21 111.91-1.83 111.83-1.44L111.83-1.44 111.74-1.44Q111.37-1.49 111.09-1.32 110.81-1.15 110.54-1.15L110.54-1.15Q110.32-1.15 110.08-1.29L110.08-1.29Q109.83-1.25 109.76-1.12 109.68-1 109.61-0.85 109.54-0.71 109.39-0.6 109.25-0.49 108.88-0.49L108.88-0.49Q108.76-0.49 108.6-0.35 108.44-0.22 108.26-0.05 108.07 0.12 107.9 0.28 107.73 0.44 107.63 0.49L107.63 0.49Q107.51 0.56 107.32 0.57 107.12 0.59 106.89 0.6 106.66 0.61 106.44 0.62 106.22 0.63 106.05 0.66L106.05 0.66Q105.85 0.71 105.69 0.85 105.53 1 105.39 1L105.39 1Q105.19 1 105.03 0.9 104.88 0.81 104.68 0.81L104.68 0.81Q104.51 0.81 104.26 0.9 104.02 1 103.73 1.12 103.43 1.25 103.09 1.34 102.75 1.44 102.39 1.44L102.39 1.44Q101.9 1.44 101.53 1.29L101.53 1.29Q101.51 1.29 101.25 1.14 100.99 0.98 100.62 0.73 100.24 0.49 99.8 0.21 99.36-0.07 98.97-0.33 98.58-0.59 98.31-0.76 98.04-0.93 97.99-0.95L97.99-0.95 97.84-1.29Q97.5-1.44 97.25-1.66 96.99-1.88 96.84-2.25L96.84-2.25Q96.6-2.39 96.43-2.62 96.26-2.86 96.09-3.1 95.92-3.34 95.72-3.55 95.52-3.76 95.23-3.86L95.23-3.86Q95.01-4.35 94.82-4.83 94.62-5.32 94.43-5.81L94.43-5.81 94.08-6.1Q94.04-6.25 94.08-6.38 94.13-6.52 94.13-6.64L94.13-6.64Q94.13-6.74 93.97-7.06 93.82-7.37 93.63-7.75 93.45-8.13 93.29-8.5 93.13-8.86 93.13-9.06L93.13-9.06Q93.13-9.42 93.21-9.77 93.28-10.11 93.28-10.45L93.28-10.45Q93.28-10.74 93.16-11.02 93.03-11.3 92.99-11.6L92.99-11.6Q92.91-11.99 92.95-12.4 92.99-12.82 92.99-13.21L92.99-13.21Q92.99-13.5 92.89-13.79 92.79-14.09 92.79-14.4L92.79-14.4Q92.79-14.7 92.96-14.94 93.13-15.19 93.13-15.45L93.13-15.45Q93.13-16.24 92.91-17 92.69-17.77 92.69-18.55L92.69-18.55Q92.69-19.17 93.01-19.87 93.33-20.58 93.79-20.95L93.79-20.95 93.79-22.09Q94.01-22.14 94.12-22.31 94.23-22.49 94.3-22.71 94.38-22.92 94.44-23.16 94.5-23.39 94.6-23.56L94.6-23.56Q94.72-23.78 94.84-23.94 94.96-24.1 95.06-24.26 95.16-24.41 95.21-24.62 95.26-24.83 95.23-25.15L95.23-25.15Q95.65-25.29 95.99-25.56 96.33-25.83 96.66-26.12 96.99-26.42 97.34-26.68 97.7-26.95 98.14-27.1L98.14-27.1Q98.45-27.51 99.19-27.92 99.92-28.32 100.68-28.66 101.43-29 102.02-29.26 102.6-29.52 102.63-29.64L102.63-29.64Q103.31-29.57 104.05-29.57 104.78-29.57 105.51-29.54 106.24-29.52 106.95-29.41 107.66-29.3 108.29-29L108.29-29Q108.37-28.86 108.48-28.74 108.59-28.61 108.68-28.5 108.78-28.39 108.85-28.25 108.93-28.1 108.93-27.91L108.93-27.91Q109.81-27.56 110.48-26.77 111.15-25.98 111.6-24.99 112.05-24 112.27-22.94 112.49-21.88 112.49-21L112.49-21Q112.49-20.73 112.38-20.56 112.27-20.39 112.18-20.14L112.18-20.14Q112.05-19.92 112.08-19.65 112.1-19.38 111.98-19.19L111.98-19.19Q111.86-18.82 111.61-18.53 111.37-18.24 111.17-17.9L111.17-17.9Q110.73-16.87 110.25-15.89 109.76-14.92 109.07-13.99L109.07-13.99Q108.81-13.65 108.44-13.33 108.07-13.01 107.98-12.55L107.98-12.55Q107.54-12.55 107.29-12.34 107.05-12.13 106.85-11.9 106.66-11.67 106.41-11.47 106.17-11.28 105.73-11.3L105.73-11.3Q105.53-10.96 105.33-10.71 105.12-10.45 104.88-10.16L104.88-10.16Q104.63-10.16 104.47-10.05 104.31-9.94 104.14-9.8 103.97-9.67 103.78-9.57 103.58-9.47 103.29-9.5L103.29-9.5Q103.07-9.18 102.78-8.95 102.48-8.72 102.18-8.5 101.87-8.28 101.6-8.02 101.34-7.76 101.19-7.4L101.19-7.4Q100.92-7.32 100.57-7.26 100.21-7.2 100.09-6.91L100.09-6.91Q100.09-6.45 100.29-6.04 100.48-5.64 101.04-5.64L101.04-5.64Q101.24-5.27 101.56-5.02 101.87-4.76 102.19-4.49L102.19-4.49Q102.8-4.54 103.41-4.49 104.02-4.44 104.63-4.44L104.63-4.44Q105.36-4.44 105.78-4.57 106.19-4.69 106.45-4.85 106.71-5 106.89-5.14 107.07-5.27 107.34-5.3L107.34-5.3Q107.68-5.91 108.05-6.47 108.42-7.03 109.07-7.25L109.07-7.25Q109.27-7.62 109.51-8 109.76-8.37 109.97-8.78 110.17-9.18 110.26-9.59 110.34-10.01 110.25-10.45L110.25-10.45Q110.47-10.74 110.75-11.19 111.03-11.65 111.37-12.06 111.71-12.48 112.09-12.77 112.47-13.06 112.88-13.06L112.88-13.06Q113.27-13.06 113.57-12.81 113.86-12.55 114.08-12.26L114.08-12.26Q114.57-12.18 114.9-11.9 115.23-11.62 115.41-11.24 115.59-10.86 115.67-10.41 115.74-9.96 115.74-9.55L115.74-9.55Q115.74-8.79 115.51-7.89 115.28-6.98 114.74-6.45ZM106.68-23.05L106.68-23.05Q106.56-23.02 106.52-23.08 106.49-23.14 106.46-23.23 106.44-23.32 106.41-23.4 106.39-23.49 106.34-23.56L106.34-23.56Q106.22-23.71 105.84-23.9 105.46-24.1 105.01-24.26 104.56-24.41 104.11-24.54 103.65-24.66 103.43-24.66L103.43-24.66Q102.95-24.66 102.64-24.49 102.34-24.32 102.09-24.12 101.85-23.93 101.62-23.75 101.38-23.58 101.04-23.56L101.04-23.56Q101.04-23.34 100.93-23.14 100.82-22.95 100.66-22.78 100.51-22.61 100.35-22.44 100.19-22.27 100.09-22.09L100.09-22.09Q99.89-21.73 99.82-21.3 99.75-20.87 99.58-20.46L99.58-20.46Q99.38-20 99.16-19.59 98.94-19.19 98.8-18.7L98.8-18.7 98.43-18.36Q98.31-17.9 98.3-17.4 98.28-16.89 98.28-16.41L98.28-16.41Q98.28-15.77 98.43-15.2 98.58-14.62 98.63-13.99L98.63-13.99Q98.63-13.77 98.58-13.51 98.53-13.26 98.53-12.99L98.53-12.99Q98.53-12.87 98.54-12.77 98.55-12.67 98.63-12.55L98.63-12.55 98.75-12.55Q99.02-12.52 99.21-12.62 99.41-12.72 99.58-12.87 99.75-13.01 99.89-13.2 100.04-13.38 100.24-13.55L100.24-13.55Q100.38-13.67 100.55-13.7 100.72-13.72 100.9-13.84L100.9-13.84Q101.02-13.96 101.04-14.1 101.07-14.23 101.19-14.36L101.19-14.36Q101.41-14.55 101.74-14.7 102.07-14.84 102.34-14.99L102.34-14.99Q102.63-15.14 102.84-15.36 103.04-15.58 103.25-15.8 103.46-16.02 103.7-16.2 103.95-16.38 104.29-16.46L104.29-16.46Q104.44-16.63 104.66-17 104.88-17.38 105.1-17.82 105.31-18.26 105.5-18.69 105.68-19.12 105.73-19.36L105.73-19.36 105.83-19.36Q106.07-19.36 106.21-19.52 106.34-19.68 106.54-19.8L106.54-19.8Q106.66-20.07 106.69-20.35 106.73-20.63 106.73-20.9L106.73-20.9Q106.73-21.46 106.65-21.97 106.56-22.49 106.68-23.05ZM138.64-1.49L138.64-1.49Q138.64-0.9 138.38-0.46 138.12-0.02 137.76 0.35 137.39 0.73 136.97 1.09 136.54 1.44 136.17 1.81L136.17 1.81Q136.05 1.76 135.95 1.76 135.85 1.76 135.73 1.76L135.73 1.76Q135.32 1.76 134.9 1.86 134.49 1.95 134.07 1.95L134.07 1.95Q133.07 1.95 132.08 1.7 131.09 1.44 130.07 1.44L130.07 1.44Q129.16 1.44 128.26 1.53 127.36 1.61 126.43 1.61L126.43 1.61Q125.19 1.61 123.95 1.81 122.72 2 121.47 2L121.47 2Q120.94 2 120.42 1.94 119.91 1.88 119.42 1.81L119.42 1.81Q119.16 1.46 118.9 1.15 118.64 0.83 118.42 0.49L118.42 0.49Q118.3 0.29 118.29 0.07 118.28-0.15 118.13-0.29L118.13-0.29Q118.06-0.39 117.98-0.42 117.91-0.44 117.84-0.46 117.76-0.49 117.7-0.55 117.64-0.61 117.62-0.81L117.62-0.81Q117.62-0.93 117.59-1.04 117.57-1.15 117.57-1.29L117.57-1.29Q117.57-2 117.93-2.55 118.3-3.1 118.57-3.71L118.57-3.71Q118.69-3.93 118.73-4.19 118.76-4.44 118.94-4.64L118.94-4.64Q119.06-4.88 119.24-4.99 119.42-5.1 119.57-5.3L119.57-5.3Q120.06-5.98 120.62-6.71 121.18-7.45 121.52-8.2L121.52-8.2Q121.57-8.35 121.58-8.46 121.6-8.57 121.67-8.69L121.67-8.69 121.99-8.84Q122.21-9.3 122.28-9.77 122.35-10.23 122.62-10.64L122.62-10.64Q122.89-11.06 123.32-11.33 123.74-11.6 124.09-11.94L124.09-11.94Q124.09-12.28 124.31-12.57 124.53-12.87 124.57-13.21L124.57-13.21Q124.97-13.5 125.23-13.88 125.5-14.26 125.73-14.66 125.97-15.06 126.17-15.49 126.38-15.92 126.67-16.31L126.67-16.31Q126.8-16.5 127-16.61 127.21-16.72 127.33-16.94L127.33-16.94Q127.63-17.55 127.97-18.14 128.31-18.73 128.58-19.36L128.58-19.36Q128.87-19.95 129.05-20.57 129.24-21.19 129.58-21.75L129.58-21.75Q127.16-21.56 124.81-21.53 122.45-21.51 120.03-21.46L120.03-21.46Q120.03-21.53 119.84-21.7 119.64-21.88 119.57-22.09L119.57-22.09Q119.45-22.17 119.23-22.24 119.01-22.31 118.94-22.41L118.94-22.41Q118.86-22.53 118.86-22.66 118.86-22.78 118.76-22.9L118.76-22.9Q118.64-23.07 118.52-23.17 118.4-23.27 118.3-23.38 118.2-23.49 118.14-23.66 118.08-23.83 118.08-24.15L118.08-24.15Q118.08-24.71 118.3-25.28 118.52-25.85 118.57-26.44L118.57-26.44Q118.98-26.64 119.26-26.95 119.55-27.27 119.89-27.54L119.89-27.54Q120.11-27.59 120.58-27.6 121.06-27.61 121.65-27.62 122.23-27.64 122.85-27.65 123.48-27.66 124-27.71 124.53-27.76 124.9-27.83 125.28-27.91 125.38-28.05L125.38-28.05Q125.67-27.91 126.04-27.86 126.41-27.81 126.67-27.54L126.67-27.54Q126.94-27.61 127.28-27.72 127.63-27.83 127.99-27.94 128.36-28.05 128.69-28.13 129.02-28.2 129.24-28.2L129.24-28.2Q129.36-28.2 129.45-28.13 129.53-28.05 129.73-28.05L129.73-28.05Q129.87-28.05 130.1-28.2 130.34-28.34 130.53-28.39L130.53-28.39Q131.14-28.47 131.89-28.5 132.63-28.54 133.22-28.54L133.22-28.54Q133.85-28.54 134.47-28.3 135.1-28.05 135.78-28.05L135.78-28.05Q136.17-28.05 136.46-28.2L136.46-28.2Q136.78-27.91 137.18-27.77 137.59-27.64 137.93-27.39L137.93-27.39Q137.95-27.34 138.01-27 138.08-26.66 138.14-26.26 138.2-25.85 138.23-25.49 138.27-25.12 138.27-25.05L138.27-25.05Q138.27-24.78 138.11-24.5 137.95-24.22 137.75-23.95 137.54-23.68 137.32-23.41 137.1-23.14 136.98-22.9L136.98-22.9Q136.86-22.63 136.83-22.33 136.81-22.02 136.68-21.75L136.68-21.75Q136.56-21.51 136.37-21.09 136.17-20.68 135.94-20.28 135.71-19.87 135.44-19.57 135.17-19.26 134.88-19.19L134.88-19.19Q134.88-18.9 134.79-18.6 134.71-18.31 134.58-18.04L134.58-18.04 134.22-17.9Q134.15-17.7 134.17-17.49 134.19-17.29 134.07-17.09L134.07-17.09Q134-16.94 133.85-16.91 133.71-16.87 133.58-16.75L133.58-16.75Q133.19-16.33 133-15.73 132.8-15.14 132.49-14.65L132.49-14.65Q132.02-14.04 131.73-13.39 131.44-12.74 131.02-12.11L131.02-12.11Q130.75-11.69 130.45-11.36 130.14-11.04 129.87-10.64L129.87-10.64Q128.77-9.03 127.91-7.31 127.04-5.59 126.19-3.86L126.19-3.86Q126.45-3.71 126.83-3.7 127.21-3.69 127.6-3.69 127.99-3.69 128.35-3.65 128.7-3.61 128.92-3.39L128.92-3.39Q129.31-3.34 129.52-3.53 129.73-3.71 130.02-3.86L130.02-3.86Q130.36-3.81 130.62-3.63 130.87-3.44 131.17-3.39L131.17-3.39Q131.66-3.52 132.13-3.78 132.61-4.05 133.12-4.05L133.12-4.05Q133.61-4.05 134.07-3.8 134.54-3.54 135.02-3.54L135.02-3.54Q135.41-3.54 135.74-3.65 136.07-3.76 136.42-3.76L136.42-3.76Q136.88-3.76 137.28-3.56 137.69-3.37 137.99-3.06 138.3-2.76 138.47-2.34 138.64-1.93 138.64-1.49ZM165.98-14.75L165.98-14.75Q165.98-13.84 165.84-13.1 165.71-12.35 165.59-11.5L165.59-11.5Q165.51-10.96 165.53-10.45 165.54-9.94 165.42-9.4L165.42-9.4Q165.3-8.98 165.08-8.61 164.86-8.23 164.61-7.86 164.37-7.5 164.14-7.12 163.9-6.74 163.78-6.35L163.78-6.35Q163.68-6.03 163.65-5.69 163.61-5.35 163.54-5 163.46-4.66 163.34-4.35 163.22-4.03 162.98-3.76L162.98-3.76Q162.83-3.56 162.6-3.45 162.37-3.34 162.17-3.15L162.17-3.15Q161.97-2.93 161.93-2.65 161.88-2.37 161.73-2.15L161.73-2.15 161.39-2.15Q161.27-2.03 161.24-1.86 161.22-1.68 161.07-1.49L161.07-1.49Q160.78-1.2 160.19-0.83 159.61-0.46 158.87-0.1 158.14 0.27 157.31 0.61 156.48 0.95 155.71 1.22 154.94 1.49 154.27 1.65 153.6 1.81 153.19 1.81L153.19 1.81Q152.87 1.81 152.73 1.75 152.6 1.68 152.53 1.6 152.45 1.51 152.38 1.45 152.31 1.39 152.09 1.39L152.09 1.39Q151.77 1.39 151.48 1.46 151.18 1.54 150.89 1.54L150.89 1.54Q150.5 1.54 150.17 1.31 149.84 1.07 149.47 0.81 149.11 0.54 148.64 0.31 148.18 0.07 147.52 0.1L147.52 0.1Q147.42-0.02 147.27-0.26 147.11-0.49 146.95-0.73 146.79-0.98 146.63-1.18 146.47-1.39 146.37-1.49L146.37-1.49Q146.18-1.68 145.92-1.75 145.67-1.81 145.42-2L145.42-2Q145.3-2.08 145.26-2.22 145.23-2.37 145.08-2.49L145.08-2.49Q144.96-2.56 144.84-2.55 144.71-2.54 144.64-2.66L144.64-2.66Q144.54-2.73 144.48-2.91 144.42-3.08 144.35-3.26 144.27-3.44 144.16-3.59 144.05-3.74 143.84-3.76L143.84-3.76Q143.84-4.13 143.64-4.43 143.44-4.74 143.32-5.05L143.32-5.05Q143.2-5.4 143.16-5.73 143.13-6.05 142.98-6.35L142.98-6.35Q142.86-6.64 142.69-6.86 142.52-7.08 142.36-7.28 142.2-7.47 142.09-7.73 141.98-7.98 141.98-8.35L141.98-8.35Q141.98-8.89 142.08-9.4 142.18-9.91 142.18-10.45L142.18-10.45Q142.18-11.01 142-11.57 141.83-12.13 141.83-12.74L141.83-12.74Q141.83-13.89 142.1-15 142.37-16.11 142.37-17.26L142.37-17.26Q142.37-17.75 142.25-18.2 142.13-18.65 142.13-19.14L142.13-19.14Q142.13-19.48 142.25-19.82 142.37-20.17 142.69-20.41L142.69-20.41Q142.74-20.48 142.71-20.58 142.69-20.68 142.69-20.75L142.69-20.75Q142.69-20.83 142.76-21.04 142.83-21.26 142.92-21.52 143.01-21.78 143.08-22.05 143.15-22.31 143.18-22.46L143.18-22.46Q143.2-22.71 143.29-22.85 143.37-23 143.51-23.11 143.64-23.22 143.76-23.33 143.88-23.44 143.98-23.61L143.98-23.61Q144.18-23.95 144.13-24.33 144.08-24.71 144.27-25.05L144.27-25.05 144.64-25.2Q144.81-25.59 144.91-25.73 145.01-25.88 145.08-25.94 145.15-26 145.23-26.03 145.3-26.05 145.42-26.2L145.42-26.2Q145.5-26.27 145.5-26.4 145.5-26.54 145.57-26.66L145.57-26.66Q145.69-26.86 145.96-26.98 146.23-27.1 146.37-27.29L146.37-27.29Q146.52-27.49 146.61-27.72 146.69-27.95 146.89-28.1L146.89-28.1Q147.11-28.32 147.5-28.44 147.89-28.56 148.18-28.76L148.18-28.76Q148.45-28.96 148.63-29.19 148.82-29.42 149.13-29.54L149.13-29.54Q149.3-29.61 149.62-29.71 149.94-29.81 150.29-29.88 150.65-29.96 150.96-30 151.28-30.05 151.48-30.05L151.48-30.05Q152.04-30.05 152.56-29.91 153.09-29.76 153.63-29.76L153.63-29.76Q154.09-29.76 154.5-29.83 154.92-29.91 155.33-29.91L155.33-29.91Q156.38-29.91 157.15-29.7 157.92-29.49 158.5-29.16 159.07-28.83 159.52-28.44 159.97-28.05 160.36-27.7 160.75-27.34 161.14-27.05 161.54-26.76 162.02-26.66L162.02-26.66Q162.17-26.2 162.57-25.95 162.98-25.71 163.32-25.39L163.32-25.39Q163.37-25 163.51-24.66 163.66-24.32 163.83-23.99 164-23.66 164.17-23.34 164.34-23.02 164.44-22.66L164.44-22.66Q164.56-22.27 164.54-21.9 164.51-21.53 164.64-21.19L164.64-21.19Q164.78-20.61 165.03-20.06 165.27-19.51 165.42-18.95L165.42-18.95Q165.51-18.58 165.51-18.21 165.51-17.85 165.59-17.5L165.59-17.5Q165.73-16.75 165.86-16.14 165.98-15.53 165.98-14.75ZM160.88-15.04L160.88-15.04Q160.88-15.38 160.72-15.64 160.56-15.89 160.44-16.21L160.44-16.21Q160.17-16.92 160.16-17.71 160.14-18.51 159.92-19.24L159.92-19.24Q159.78-19.75 159.34-20.41 158.9-21.07 158.34-21.7 157.78-22.34 157.18-22.86 156.58-23.39 156.09-23.61L156.09-23.61 155.87-23.95Q155.72-24.02 155.51-24.02 155.29-24.02 155.09-24.1L155.09-24.1Q154.53-24.29 154.02-24.5 153.5-24.71 152.87-24.71L152.87-24.71Q152.04-24.71 151.57-24.45 151.11-24.19 150.77-23.89 150.43-23.58 150.11-23.33 149.79-23.07 149.28-23.1L149.28-23.1Q149.28-22.71 149.12-22.42 148.96-22.14 148.74-21.9 148.52-21.66 148.3-21.41 148.08-21.17 147.99-20.85L147.99-20.85Q147.94-20.65 147.88-20.12 147.81-19.58 147.77-18.93 147.72-18.29 147.69-17.7 147.67-17.11 147.67-16.85L147.67-16.85Q147.67-16.72 147.62-16.6 147.57-16.48 147.52-16.36L147.52-16.36Q147.47-15.65 147.45-14.93 147.42-14.21 147.42-13.5L147.42-13.5Q147.42-13.23 147.5-12.68 147.57-12.13 147.69-11.44 147.81-10.74 147.96-9.97 148.11-9.2 148.27-8.52 148.43-7.84 148.57-7.29 148.72-6.74 148.84-6.49L148.84-6.49Q148.96-6.23 149.13-6.08 149.3-5.93 149.43-5.69L149.43-5.69Q149.5-5.57 149.5-5.44 149.5-5.32 149.62-5.2L149.62-5.2Q149.87-4.93 150.22-4.79 150.57-4.64 150.89-4.39L150.89-4.39Q151.28-4.3 151.45-4.14 151.62-3.98 151.83-3.82 152.04-3.66 152.39-3.55 152.75-3.44 153.53-3.44L153.53-3.44Q153.92-3.44 154.03-3.54 154.14-3.64 154.43-3.76L154.43-3.76Q154.7-3.88 154.97-3.88 155.24-3.88 155.43-3.96L155.43-3.96Q155.85-4.39 156.42-4.79 156.99-5.18 157.34-5.69L157.34-5.69Q157.46-5.86 157.43-6.03 157.41-6.2 157.53-6.35L157.53-6.35Q157.6-6.47 157.75-6.49 157.9-6.52 157.97-6.64L157.97-6.64Q158.31-7.13 158.47-7.78 158.63-8.42 158.97-8.96L158.97-8.96Q159.12-9.23 159.39-9.41 159.66-9.59 159.78-9.91L159.78-9.91Q159.88-10.18 159.92-10.52 159.97-10.86 159.99-11.23 160-11.6 160.01-11.96 160.02-12.33 160.07-12.65L160.07-12.65Q160.12-12.92 160.25-13.24 160.39-13.57 160.52-13.9 160.66-14.23 160.77-14.54 160.88-14.84 160.88-15.04ZM193.56-14.75L193.56-14.75Q193.56-13.84 193.43-13.1 193.3-12.35 193.17-11.5L193.17-11.5Q193.1-10.96 193.11-10.45 193.12-9.94 193-9.4L193-9.4Q192.88-8.98 192.66-8.61 192.44-8.23 192.2-7.86 191.95-7.5 191.72-7.12 191.49-6.74 191.37-6.35L191.37-6.35Q191.27-6.03 191.23-5.69 191.2-5.35 191.12-5 191.05-4.66 190.93-4.35 190.81-4.03 190.56-3.76L190.56-3.76Q190.41-3.56 190.18-3.45 189.95-3.34 189.76-3.15L189.76-3.15Q189.56-2.93 189.51-2.65 189.46-2.37 189.32-2.15L189.32-2.15 188.97-2.15Q188.85-2.03 188.83-1.86 188.8-1.68 188.66-1.49L188.66-1.49Q188.36-1.2 187.78-0.83 187.19-0.46 186.46-0.1 185.73 0.27 184.9 0.61 184.07 0.95 183.3 1.22 182.53 1.49 181.86 1.65 181.19 1.81 180.77 1.81L180.77 1.81Q180.45 1.81 180.32 1.75 180.19 1.68 180.11 1.6 180.04 1.51 179.97 1.45 179.89 1.39 179.67 1.39L179.67 1.39Q179.36 1.39 179.06 1.46 178.77 1.54 178.48 1.54L178.48 1.54Q178.09 1.54 177.76 1.31 177.43 1.07 177.06 0.81 176.69 0.54 176.23 0.31 175.77 0.07 175.11 0.1L175.11 0.1Q175.01-0.02 174.85-0.26 174.69-0.49 174.53-0.73 174.37-0.98 174.22-1.18 174.06-1.39 173.96-1.49L173.96-1.49Q173.76-1.68 173.51-1.75 173.25-1.81 173.01-2L173.01-2Q172.89-2.08 172.85-2.22 172.81-2.37 172.67-2.49L172.67-2.49Q172.54-2.56 172.42-2.55 172.3-2.54 172.23-2.66L172.23-2.66Q172.13-2.73 172.07-2.91 172.01-3.08 171.93-3.26 171.86-3.44 171.75-3.59 171.64-3.74 171.42-3.76L171.42-3.76Q171.42-4.13 171.23-4.43 171.03-4.74 170.91-5.05L170.91-5.05Q170.79-5.4 170.75-5.73 170.71-6.05 170.57-6.35L170.57-6.35Q170.44-6.64 170.27-6.86 170.1-7.08 169.94-7.28 169.78-7.47 169.67-7.73 169.57-7.98 169.57-8.35L169.57-8.35Q169.57-8.89 169.66-9.4 169.76-9.91 169.76-10.45L169.76-10.45Q169.76-11.01 169.59-11.57 169.42-12.13 169.42-12.74L169.42-12.74Q169.42-13.89 169.69-15 169.96-16.11 169.96-17.26L169.96-17.26Q169.96-17.75 169.83-18.2 169.71-18.65 169.71-19.14L169.71-19.14Q169.71-19.48 169.83-19.82 169.96-20.17 170.27-20.41L170.27-20.41Q170.32-20.48 170.3-20.58 170.27-20.68 170.27-20.75L170.27-20.75Q170.27-20.83 170.35-21.04 170.42-21.26 170.51-21.52 170.59-21.78 170.66-22.05 170.74-22.31 170.76-22.46L170.76-22.46Q170.79-22.71 170.87-22.85 170.96-23 171.09-23.11 171.23-23.22 171.35-23.33 171.47-23.44 171.57-23.61L171.57-23.61Q171.76-23.95 171.71-24.33 171.66-24.71 171.86-25.05L171.86-25.05 172.23-25.2Q172.4-25.59 172.49-25.73 172.59-25.88 172.67-25.94 172.74-26 172.81-26.03 172.89-26.05 173.01-26.2L173.01-26.2Q173.08-26.27 173.08-26.4 173.08-26.54 173.15-26.66L173.15-26.66Q173.28-26.86 173.54-26.98 173.81-27.1 173.96-27.29L173.96-27.29Q174.11-27.49 174.19-27.72 174.28-27.95 174.47-28.1L174.47-28.1Q174.69-28.32 175.08-28.44 175.47-28.56 175.77-28.76L175.77-28.76Q176.03-28.96 176.22-29.19 176.4-29.42 176.72-29.54L176.72-29.54Q176.89-29.61 177.21-29.71 177.52-29.81 177.88-29.88 178.23-29.96 178.55-30 178.87-30.05 179.06-30.05L179.06-30.05Q179.62-30.05 180.15-29.91 180.67-29.76 181.21-29.76L181.21-29.76Q181.67-29.76 182.09-29.83 182.5-29.91 182.92-29.91L182.92-29.91Q183.97-29.91 184.74-29.7 185.51-29.49 186.08-29.16 186.65-28.83 187.11-28.44 187.56-28.05 187.95-27.7 188.34-27.34 188.73-27.05 189.12-26.76 189.61-26.66L189.61-26.66Q189.76-26.2 190.16-25.95 190.56-25.71 190.9-25.39L190.9-25.39Q190.95-25 191.1-24.66 191.24-24.32 191.42-23.99 191.59-23.66 191.76-23.34 191.93-23.02 192.03-22.66L192.03-22.66Q192.15-22.27 192.12-21.9 192.1-21.53 192.22-21.19L192.22-21.19Q192.37-20.61 192.61-20.06 192.86-19.51 193-18.95L193-18.95Q193.1-18.58 193.1-18.21 193.1-17.85 193.17-17.5L193.17-17.5Q193.32-16.75 193.44-16.14 193.56-15.53 193.56-14.75ZM188.46-15.04L188.46-15.04Q188.46-15.38 188.3-15.64 188.14-15.89 188.02-16.21L188.02-16.21Q187.75-16.92 187.74-17.71 187.73-18.51 187.51-19.24L187.51-19.24Q187.36-19.75 186.92-20.41 186.48-21.07 185.92-21.7 185.36-22.34 184.76-22.86 184.16-23.39 183.68-23.61L183.68-23.61 183.46-23.95Q183.31-24.02 183.09-24.02 182.87-24.02 182.68-24.1L182.68-24.1Q182.11-24.29 181.6-24.5 181.09-24.71 180.45-24.71L180.45-24.71Q179.62-24.71 179.16-24.45 178.7-24.19 178.35-23.89 178.01-23.58 177.69-23.33 177.38-23.07 176.86-23.1L176.86-23.1Q176.86-22.71 176.71-22.42 176.55-22.14 176.33-21.9 176.11-21.66 175.89-21.41 175.67-21.17 175.57-20.85L175.57-20.85Q175.52-20.65 175.46-20.12 175.4-19.58 175.35-18.93 175.3-18.29 175.28-17.7 175.25-17.11 175.25-16.85L175.25-16.85Q175.25-16.72 175.2-16.6 175.16-16.48 175.11-16.36L175.11-16.36Q175.06-15.65 175.03-14.93 175.01-14.21 175.01-13.5L175.01-13.5Q175.01-13.23 175.08-12.68 175.16-12.13 175.28-11.44 175.4-10.74 175.55-9.97 175.69-9.2 175.85-8.52 176.01-7.84 176.16-7.29 176.3-6.74 176.43-6.49L176.43-6.49Q176.55-6.23 176.72-6.08 176.89-5.93 177.01-5.69L177.01-5.69Q177.08-5.57 177.08-5.44 177.08-5.32 177.21-5.2L177.21-5.2Q177.45-4.93 177.8-4.79 178.16-4.64 178.48-4.39L178.48-4.39Q178.87-4.3 179.04-4.14 179.21-3.98 179.42-3.82 179.62-3.66 179.98-3.55 180.33-3.44 181.11-3.44L181.11-3.44Q181.5-3.44 181.61-3.54 181.72-3.64 182.02-3.76L182.02-3.76Q182.28-3.88 182.55-3.88 182.82-3.88 183.02-3.96L183.02-3.96Q183.43-4.39 184.01-4.79 184.58-5.18 184.92-5.69L184.92-5.69Q185.04-5.86 185.02-6.03 184.99-6.2 185.12-6.35L185.12-6.35Q185.19-6.47 185.34-6.49 185.48-6.52 185.56-6.64L185.56-6.64Q185.9-7.13 186.06-7.78 186.22-8.42 186.56-8.96L186.56-8.96Q186.7-9.23 186.97-9.41 187.24-9.59 187.36-9.91L187.36-9.91Q187.46-10.18 187.51-10.52 187.56-10.86 187.57-11.23 187.58-11.6 187.59-11.96 187.61-12.33 187.66-12.65L187.66-12.65Q187.7-12.92 187.84-13.24 187.97-13.57 188.11-13.9 188.24-14.23 188.35-14.54 188.46-14.84 188.46-15.04Z" opacity="1" transform="matrix(1,0,0,1,0,0)" fill="#ffffff" class="wordmark-text-0" data-fill-palette-color="primary" id="text-0"></path></svg></g></svg></g></svg></g></svg></g><g><svg viewBox="0 0 54.212112858988725 75.60836731873081" height="75.60836731873081" width="54.212112858988725"><g><svg xmlns="http://www.w3.org/2000/svg" xmlns:xlink="http://www.w3.org/1999/xlink" version="1.1" x="0" y="0" viewBox="11.996618568360741 0.718 70.46938143163926 98.282" enable-background="new 0 0 100 100" xml:space="preserve" height="75.60836731873081" width="54.212112858988725" class="icon-icon-0" data-fill-palette-color="accent" id="icon-0"><path d="M78.145 94.255L64.9 30.442c4.664-5.837 12.566-10.411 12.566-10.411l3.015-10.451L57.823 8.736l-1.462-8.018L34.34 53.39 22.478 90.057c-2.164-1.028-6.174-3.531-10.188-9.166 0 0-1.592 9.185 2.641 14.404C16.625 97.386 19.961 99 19.961 99h11.696H50.27h24.481c0-5.626-14.593-6.731-14.593-6.731 0-0.888-0.061-2.269-0.167-2.269h-0.163c0 0 0.033-1.654-0.617-3.688-0.02-0.062-0.037-0.264-0.059-0.324-0.034-0.104-0.074-0.284-0.114-0.393-0.388-1.052-0.86-2.067-1.403-2.976-2.237-3.713-6.753-8.108-15.88-10.865l1.422-2.558c0 0 10.452 2.241 16.018 9.799l3.149-10.657L70.141 92c0.01 0 0.021 0 0.031 0 0.101 0 7.585 2.08 7.585 7h4.709C82.466 99 81.57 95.521 78.145 94.255z" fill="#ffffff" data-fill-palette-color="accent"></path></svg></g></svg></g></svg></g><defs></defs></svg><rect width="395.52" height="63.977412557118555" fill="none" stroke="none" visibility="hidden"></rect></g></svg></g></svg>